<svg version="1.1" id="svg1" width="473" height="95" viewBox="0.19729839265346527 1.1846143007278442 472.9134804159403 95.18258845806122" sodipodi:docname="sg-logo-transparent-bg-inverted-v1.1.eps" xmlns:inkscape="http://www.inkscape.org/namespaces/inkscape" xmlns:sodipodi="http://sodipodi.sourceforge.net/DTD/sodipodi-0.dtd" xmlns="http://www.w3.org/2000/svg" xmlns:svg="http://www.w3.org/2000/svg" style="">
  <defs id="defs1"/>
  <sodipodi:namedview id="namedview1" pagecolor="#ffffff" bordercolor="#000000" borderopacity="0.25" inkscape:showpageshadow="2" inkscape:pageopacity="0.0" inkscape:pagecheckerboard="0" inkscape:deskcolor="#d1d1d1">
    <inkscape:page x="0" y="0" inkscape:label="1" id="page1" width="2400" height="658.32001" margin="0" bleed="0"/>
  </sodipodi:namedview>
  <g id="g1" inkscape:groupmode="layer" inkscape:label="1">
    <g id="group-R5">
      <path id="path2" d="m 4834.43,681.91 c -28.16,59.012 -86.67,91.762 -144.01,91.762 -93.19,0 -161.31,-84.141 -161.31,-223.891 0,-138.64 68.12,-209.621 145.1,-209.621 78.98,0 138.58,65.512 160.22,132.129 z M 4937.3,290.992 h -41.14 c -42.23,0 -60.63,36.078 -60.63,78.668 v 14.192 c -21.71,-53.532 -95.32,-102.704 -166.81,-102.704 -147.24,0 -211.1,128.883 -211.1,264.344 0,179.008 102.87,282.75 228.47,282.75 51.92,0 112.63,-21.812 148.34,-68.762 l 1.1,40.372 c 0,13.089 7.55,17.449 19.5,17.449 h 32.48 c 11.88,0 16.21,-6.512 16.21,-19.602 V 414.402 c 0,-30.55 0,-51.32 4.32,-60.05 4.33,-9.832 11.95,-13.082 22.8,-13.082 h 7.56 c 8.65,0 11.88,-2.219 11.88,-12.051 V 302 c 0,-8.789 -3.23,-11.008 -12.98,-11.008" style="fill:#6fc72d;fill-opacity:1;fill-rule:nonzero;stroke:none" transform="matrix(0.13333333,0,0,-0.13333333,0,658.32)"/>
      <path id="path3" d="m 4834.43,681.91 c -28.16,59.012 -86.67,91.762 -144.01,91.762 -93.19,0 -161.31,-84.141 -161.31,-223.891 0,-138.64 68.12,-209.621 145.1,-209.621 78.98,0 138.58,65.512 160.22,132.129 z M 4937.3,290.992 h -41.14 c -42.23,0 -60.63,36.078 -60.63,78.668 v 14.192 c -21.71,-53.532 -95.32,-102.704 -166.81,-102.704 -147.24,0 -211.1,128.883 -211.1,264.344 0,179.008 102.87,282.75 228.47,282.75 51.92,0 112.63,-21.812 148.34,-68.762 l 1.1,40.372 c 0,13.089 7.55,17.449 19.5,17.449 h 32.48 c 11.88,0 16.21,-6.512 16.21,-19.602 V 414.402 c 0,-30.55 0,-51.32 4.32,-60.05 4.33,-9.832 11.95,-13.082 22.8,-13.082 h 7.56 c 8.65,0 11.88,-2.219 11.88,-12.051 V 302 c 0,-8.789 -3.23,-11.008 -12.98,-11.008" style="fill:#6fc72d;fill-opacity:1;fill-rule:nonzero;stroke:none" transform="matrix(0.13333333,0,0,-0.13333333,0,658.32)"/>
      <path id="path4" d="m 5390,311.781 c -43.33,-20.781 -94.22,-30.609 -139.68,-30.609 -171.14,0 -247.98,115.789 -247.98,275.199 0,154.988 93.12,271.879 252.3,271.879 45.47,0 101.78,-14.191 135.36,-32.82 6.52,-3.258 9.75,-7.621 9.75,-11.981 0,-2.219 -1.1,-5.469 -2.2,-8.66 l -6.45,-19.668 c -2.2,-5.539 -4.33,-12.039 -10.85,-12.039 -2.13,0 -4.33,1.098 -7.56,2.207 -34.68,16.34 -73.68,29.5 -119.14,29.5 -108.23,0 -179.72,-84.137 -179.72,-216.269 0,-114.68 46.56,-224.93 176.49,-224.93 46.56,0 93.12,12.051 125.6,26.25 3.23,1.109 5.43,2.14 7.56,2.14 5.42,0 9.75,-4.359 10.85,-9.828 l 5.42,-19.672 c 1.1,-3.25 1.1,-6.511 1.1,-8.718 0,-5.473 -3.3,-8.731 -10.85,-11.981" style="fill:#6fc72d;fill-opacity:1;fill-rule:nonzero;stroke:none" transform="matrix(0.13333333,0,0,-0.13333333,0,658.32)"/>
      <path id="path5" d="m 5390,311.781 c -43.33,-20.781 -94.22,-30.609 -139.68,-30.609 -171.14,0 -247.98,115.789 -247.98,275.199 0,154.988 93.12,271.879 252.3,271.879 45.47,0 101.78,-14.191 135.36,-32.82 6.52,-3.258 9.75,-7.621 9.75,-11.981 0,-2.219 -1.1,-5.469 -2.2,-8.66 l -6.45,-19.668 c -2.2,-5.539 -4.33,-12.039 -10.85,-12.039 -2.13,0 -4.33,1.098 -7.56,2.207 -34.68,16.34 -73.68,29.5 -119.14,29.5 -108.23,0 -179.72,-84.137 -179.72,-216.269 0,-114.68 46.56,-224.93 176.49,-224.93 46.56,0 93.12,12.051 125.6,26.25 3.23,1.109 5.43,2.14 7.56,2.14 5.42,0 9.75,-4.359 10.85,-9.828 l 5.42,-19.672 c 1.1,-3.25 1.1,-6.511 1.1,-8.718 0,-5.473 -3.3,-8.731 -10.85,-11.981" style="fill:#6fc72d;fill-opacity:1;fill-rule:nonzero;stroke:none" transform="matrix(0.13333333,0,0,-0.13333333,0,658.32)"/>
      <path id="path6" d="m 5825.34,311.781 c -43.33,-20.781 -94.22,-30.609 -139.68,-30.609 -171.14,0 -247.98,115.789 -247.98,275.199 0,154.988 93.12,271.879 252.3,271.879 45.47,0 101.78,-14.191 135.36,-32.82 6.52,-3.258 9.75,-7.621 9.75,-11.981 0,-2.219 -1.1,-5.469 -2.2,-8.66 l -6.45,-19.668 c -2.2,-5.539 -4.33,-12.039 -10.85,-12.039 -2.13,0 -4.33,1.098 -7.56,2.207 -34.68,16.34 -73.68,29.5 -119.15,29.5 -108.22,0 -179.71,-84.137 -179.71,-216.269 0,-114.68 46.56,-224.93 176.49,-224.93 46.56,0 93.12,12.051 125.6,26.25 3.23,1.109 5.43,2.14 7.56,2.14 5.42,0 9.75,-4.359 10.85,-9.828 l 5.42,-19.672 c 1.1,-3.25 1.1,-6.511 1.1,-8.718 0,-5.473 -3.3,-8.731 -10.85,-11.981" style="fill:#6fc72d;fill-opacity:1;fill-rule:nonzero;stroke:none" transform="matrix(0.13333333,0,0,-0.13333333,0,658.32)"/>
      <path id="path7" d="m 5825.34,311.781 c -43.33,-20.781 -94.22,-30.609 -139.68,-30.609 -171.14,0 -247.98,115.789 -247.98,275.199 0,154.988 93.12,271.879 252.3,271.879 45.47,0 101.78,-14.191 135.36,-32.82 6.52,-3.258 9.75,-7.621 9.75,-11.981 0,-2.219 -1.1,-5.469 -2.2,-8.66 l -6.45,-19.668 c -2.2,-5.539 -4.33,-12.039 -10.85,-12.039 -2.13,0 -4.33,1.098 -7.56,2.207 -34.68,16.34 -73.68,29.5 -119.15,29.5 -108.22,0 -179.71,-84.137 -179.71,-216.269 0,-114.68 46.56,-224.93 176.49,-224.93 46.56,0 93.12,12.051 125.6,26.25 3.23,1.109 5.43,2.14 7.56,2.14 5.42,0 9.75,-4.359 10.85,-9.828 l 5.42,-19.672 c 1.1,-3.25 1.1,-6.511 1.1,-8.718 0,-5.473 -3.3,-8.731 -10.85,-11.981" style="fill:#6fc72d;fill-opacity:1;fill-rule:nonzero;stroke:none" transform="matrix(0.13333333,0,0,-0.13333333,0,658.32)"/>
      <path id="path8" d="m 6113.42,774.75 c -128.9,0 -168.87,-115.789 -168.87,-217.238 0,-107.133 36.81,-223.891 163.44,-223.891 125.6,0 170.04,110.25 170.04,219.531 0,108.028 -41.14,221.598 -164.61,221.598 m -6.53,-493.559 c -162.34,0 -233.83,120.09 -233.83,274.098 0,151.731 84.47,272.992 240.36,272.992 162.41,0 236.09,-115.789 236.09,-272.992 0,-152.969 -85.56,-274.098 -242.62,-274.098" style="fill:#6fc72d;fill-opacity:1;fill-rule:nonzero;stroke:none" transform="matrix(0.13333333,0,0,-0.13333333,0,658.32)"/>
      <path id="path9" d="m 6113.42,774.75 c -128.9,0 -168.87,-115.789 -168.87,-217.238 0,-107.133 36.81,-223.891 163.44,-223.891 125.6,0 170.04,110.25 170.04,219.531 0,108.028 -41.14,221.598 -164.61,221.598 z m -6.53,-493.559 c -162.34,0 -233.83,120.09 -233.83,274.098 0,151.731 84.47,272.992 240.36,272.992 162.41,0 236.09,-115.789 236.09,-272.992 0,-152.969 -85.56,-274.098 -242.62,-274.098" style="fill:#6fc72d;fill-opacity:1;fill-rule:nonzero;stroke:none" transform="matrix(0.13333333,0,0,-0.13333333,0,658.32)"/>
      <path id="path10" d="m 6837.9,291.012 h -33.58 c -11.88,0 -17.31,6.578 -17.31,19.668 l -1.1,38.218 c -49.79,-44.867 -108.3,-67.726 -170.03,-67.726 -54.12,0 -94.15,16.418 -122.38,43.699 -34.61,34.899 -48.69,87.328 -48.69,154.988 v 317.789 c 0,13.161 5.43,19.602 17.38,19.602 h 34.61 c 11.95,0 17.37,-6.441 17.37,-19.602 V 489.691 c 0,-53.461 8.65,-93.91 31.39,-120.082 16.2,-18.558 46.56,-31.718 87.62,-31.718 51.99,0 117.02,36.078 152.73,72.089 v 387.668 c 0,13.161 5.43,19.602 17.31,19.602 h 34.68 c 11.88,0 17.3,-6.441 17.3,-19.602 V 310.68 c 0,-13.09 -5.42,-19.668 -17.3,-19.668" style="fill:#6fc72d;fill-opacity:1;fill-rule:nonzero;stroke:none" transform="matrix(0.13333333,0,0,-0.13333333,0,658.32)"/>
      <path id="path11" d="m 6837.9,291.012 h -33.58 c -11.88,0 -17.31,6.578 -17.31,19.668 l -1.1,38.218 c -49.79,-44.867 -108.3,-67.726 -170.03,-67.726 -54.12,0 -94.15,16.418 -122.38,43.699 -34.61,34.899 -48.69,87.328 -48.69,154.988 v 317.789 c 0,13.161 5.43,19.602 17.38,19.602 h 34.61 c 11.95,0 17.37,-6.441 17.37,-19.602 V 489.691 c 0,-53.461 8.65,-93.91 31.39,-120.082 16.2,-18.558 46.56,-31.718 87.62,-31.718 51.99,0 117.02,36.078 152.73,72.089 v 387.668 c 0,13.161 5.43,19.602 17.31,19.602 h 34.68 c 11.88,0 17.3,-6.441 17.3,-19.602 V 310.68 c 0,-13.09 -5.42,-19.668 -17.3,-19.668" style="fill:#6fc72d;fill-opacity:1;fill-rule:nonzero;stroke:none" transform="matrix(0.13333333,0,0,-0.13333333,0,658.32)"/>
      <path id="path12" d="m 7382.61,291.012 h -34.68 c -11.88,0 -17.3,6.578 -17.3,19.668 v 311.14 c 0,87.399 -20.6,151.801 -120.18,151.801 -54.18,0 -121.28,-31.652 -162.41,-69.871 V 310.68 c 0,-13.09 -5.43,-19.668 -17.31,-19.668 h -34.68 c -11.95,0 -17.3,6.578 -17.3,19.668 v 486.968 c 0,13.161 5.35,19.602 17.3,19.602 h 33.58 c 11.88,0 17.31,-6.441 17.31,-19.602 l 1.1,-37.117 c 49.72,44.739 119.08,67.731 180.81,67.731 126.71,0 171.07,-77.563 171.07,-196.602 V 310.68 c 0,-13.09 -5.43,-19.668 -17.31,-19.668" style="fill:#6fc72d;fill-opacity:1;fill-rule:nonzero;stroke:none" transform="matrix(0.13333333,0,0,-0.13333333,0,658.32)"/>
      <path id="path13" d="m 7382.61,291.012 h -34.68 c -11.88,0 -17.3,6.578 -17.3,19.668 v 311.14 c 0,87.399 -20.6,151.801 -120.18,151.801 -54.18,0 -121.28,-31.652 -162.41,-69.871 V 310.68 c 0,-13.09 -5.43,-19.668 -17.31,-19.668 h -34.68 c -11.95,0 -17.3,6.578 -17.3,19.668 v 486.968 c 0,13.161 5.35,19.602 17.3,19.602 h 33.58 c 11.88,0 17.31,-6.441 17.31,-19.602 l 1.1,-37.117 c 49.72,44.739 119.08,67.731 180.81,67.731 126.71,0 171.07,-77.563 171.07,-196.602 V 310.68 c 0,-13.09 -5.43,-19.668 -17.31,-19.668" style="fill:#6fc72d;fill-opacity:1;fill-rule:nonzero;stroke:none" transform="matrix(0.13333333,0,0,-0.13333333,0,658.32)"/>
      <path id="path14" d="m 7777.92,297.57 c -20.6,-7.621 -56.31,-16.41 -88.79,-16.41 -42.24,0 -87.7,12.051 -111.53,37.121 -30.28,31.649 -32.48,76.52 -32.48,136.489 v 311.222 h -63.93 c -9.69,0 -11.88,2.219 -11.88,10.938 v 29.5 c 0,9.769 2.19,10.871 9.75,10.871 h 66.06 V 945.07 c 0,13.09 2.2,17.461 14.08,19.672 l 37.84,5.469 h 1.1 3.29 c 8.66,0 12.98,-6.582 12.98,-17.52 v -135.39 h 131.03 c 8.65,0 11.88,-2.211 11.88,-12.039 V 776.93 c 0,-8.719 -3.23,-10.938 -12.98,-10.938 h -129.93 v -322.16 c 0,-38.16 3.3,-68.703 21.63,-87.32 12.98,-13.09 33.58,-20.711 63.94,-20.711 24.86,0 51.98,7.621 67.09,11.98 3.3,1.11 6.53,1.11 8.65,1.11 6.53,0 6.53,-3.262 7.63,-7.621 l 5.42,-27.278 v -4.441 c 0,-5.469 -3.29,-8.719 -10.85,-11.981" style="fill:#6fc72d;fill-opacity:1;fill-rule:nonzero;stroke:none" transform="matrix(0.13333333,0,0,-0.13333333,0,658.32)"/>
      <path id="path15" d="m 7777.92,297.57 c -20.6,-7.621 -56.31,-16.41 -88.79,-16.41 -42.24,0 -87.7,12.051 -111.53,37.121 -30.28,31.649 -32.48,76.52 -32.48,136.489 v 311.222 h -63.93 c -9.69,0 -11.88,2.219 -11.88,10.938 v 29.5 c 0,9.769 2.19,10.871 9.75,10.871 h 66.06 V 945.07 c 0,13.09 2.2,17.461 14.08,19.672 l 37.84,5.469 h 1.1 3.29 c 8.66,0 12.98,-6.582 12.98,-17.52 v -135.39 h 131.03 c 8.65,0 11.88,-2.211 11.88,-12.039 V 776.93 c 0,-8.719 -3.23,-10.938 -12.98,-10.938 h -129.93 v -322.16 c 0,-38.16 3.3,-68.703 21.63,-87.32 12.98,-13.09 33.58,-20.711 63.94,-20.711 24.86,0 51.98,7.621 67.09,11.98 3.3,1.11 6.53,1.11 8.65,1.11 6.53,0 6.53,-3.262 7.63,-7.621 l 5.42,-27.278 v -4.441 c 0,-5.469 -3.29,-8.719 -10.85,-11.981" style="fill:#6fc72d;fill-opacity:1;fill-rule:nonzero;stroke:none" transform="matrix(0.13333333,0,0,-0.13333333,0,658.32)"/>
      <path id="path16" d="m 8178.61,681.91 c -28.16,59.012 -86.67,91.762 -144.01,91.762 -93.19,0 -161.31,-84.141 -161.31,-223.891 0,-138.64 68.12,-209.621 145.11,-209.621 78.97,0 138.58,65.512 160.21,132.129 z m 102.87,-390.918 h -41.13 c -42.24,0 -60.64,36.078 -60.64,78.668 v 14.192 c -21.7,-53.532 -95.32,-102.704 -166.81,-102.704 -147.23,0 -211.1,128.883 -211.1,264.344 0,179.008 102.87,282.75 228.48,282.75 51.91,0 112.62,-21.812 148.33,-68.762 l 1.1,40.372 c 0,13.089 7.55,17.449 19.5,17.449 h 32.48 c 11.89,0 16.21,-6.512 16.21,-19.602 V 414.402 c 0,-30.55 0,-51.32 4.33,-60.05 4.32,-9.832 11.95,-13.082 22.8,-13.082 h 7.55 c 8.65,0 11.88,-2.219 11.88,-12.051 V 302 c 0,-8.789 -3.23,-11.008 -12.98,-11.008" style="fill:#6fc72d;fill-opacity:1;fill-rule:nonzero;stroke:none" transform="matrix(0.13333333,0,0,-0.13333333,0,658.32)"/>
      <path id="path17" d="m 8178.61,681.91 c -28.16,59.012 -86.67,91.762 -144.01,91.762 -93.19,0 -161.31,-84.141 -161.31,-223.891 0,-138.64 68.12,-209.621 145.11,-209.621 78.97,0 138.58,65.512 160.21,132.129 z m 102.87,-390.918 h -41.13 c -42.24,0 -60.64,36.078 -60.64,78.668 v 14.192 c -21.7,-53.532 -95.32,-102.704 -166.81,-102.704 -147.23,0 -211.1,128.883 -211.1,264.344 0,179.008 102.87,282.75 228.48,282.75 51.91,0 112.62,-21.812 148.33,-68.762 l 1.1,40.372 c 0,13.089 7.55,17.449 19.5,17.449 h 32.48 c 11.89,0 16.21,-6.512 16.21,-19.602 V 414.402 c 0,-30.55 0,-51.32 4.33,-60.05 4.32,-9.832 11.95,-13.082 22.8,-13.082 h 7.55 c 8.65,0 11.88,-2.219 11.88,-12.051 V 302 c 0,-8.789 -3.23,-11.008 -12.98,-11.008" style="fill:#6fc72d;fill-opacity:1;fill-rule:nonzero;stroke:none" transform="matrix(0.13333333,0,0,-0.13333333,0,658.32)"/>
      <path id="path18" d="m 8778.57,291.012 h -34.68 c -11.88,0 -17.3,6.578 -17.3,19.668 v 311.14 c 0,87.399 -20.6,151.801 -120.18,151.801 -54.18,0 -121.28,-31.652 -162.41,-69.871 V 310.68 c 0,-13.09 -5.43,-19.668 -17.31,-19.668 h -34.68 c -11.95,0 -17.3,6.578 -17.3,19.668 v 486.968 c 0,13.161 5.35,19.602 17.3,19.602 h 33.58 c 11.88,0 17.31,-6.441 17.31,-19.602 l 1.1,-37.117 c 49.72,44.739 119.08,67.731 180.81,67.731 126.71,0 171.07,-77.563 171.07,-196.602 V 310.68 c 0,-13.09 -5.43,-19.668 -17.31,-19.668" style="fill:#6fc72d;fill-opacity:1;fill-rule:nonzero;stroke:none" transform="matrix(0.13333333,0,0,-0.13333333,0,658.32)"/>
      <path id="path19" d="m 8778.57,291.012 h -34.68 c -11.88,0 -17.3,6.578 -17.3,19.668 v 311.14 c 0,87.399 -20.6,151.801 -120.18,151.801 -54.18,0 -121.28,-31.652 -162.41,-69.871 V 310.68 c 0,-13.09 -5.43,-19.668 -17.31,-19.668 h -34.68 c -11.95,0 -17.3,6.578 -17.3,19.668 v 486.968 c 0,13.161 5.35,19.602 17.3,19.602 h 33.58 c 11.88,0 17.31,-6.441 17.31,-19.602 l 1.1,-37.117 c 49.72,44.739 119.08,67.731 180.81,67.731 126.71,0 171.07,-77.563 171.07,-196.602 V 310.68 c 0,-13.09 -5.43,-19.668 -17.31,-19.668" style="fill:#6fc72d;fill-opacity:1;fill-rule:nonzero;stroke:none" transform="matrix(0.13333333,0,0,-0.13333333,0,658.32)"/>
      <path id="path20" d="m 9173.86,297.57 c -20.6,-7.621 -56.31,-16.41 -88.79,-16.41 -42.24,0 -87.77,12.051 -111.53,37.121 -30.28,31.649 -32.55,76.52 -32.55,136.489 v 311.222 h -63.86 c -9.69,0 -11.88,2.219 -11.88,10.938 v 29.5 c 0,9.769 2.19,10.871 9.75,10.871 h 65.99 V 945.07 c 0,13.09 2.27,17.461 14.15,19.672 l 37.84,5.469 h 1.1 3.22 c 8.73,0 13.05,-6.582 13.05,-17.52 v -135.39 h 131.03 c 8.65,0 11.88,-2.211 11.88,-12.039 V 776.93 c 0,-8.719 -3.23,-10.938 -12.98,-10.938 h -129.93 v -322.16 c 0,-38.16 3.23,-68.703 21.63,-87.32 12.98,-13.09 33.58,-20.711 63.94,-20.711 24.86,0 51.98,7.621 67.09,11.98 3.3,1.11 6.53,1.11 8.65,1.11 6.53,0 6.53,-3.262 7.63,-7.621 l 5.42,-27.278 v -4.441 c 0,-5.469 -3.29,-8.719 -10.85,-11.981" style="fill:#6fc72d;fill-opacity:1;fill-rule:nonzero;stroke:none" transform="matrix(0.13333333,0,0,-0.13333333,0,658.32)"/>
      <path id="path21" d="m 9173.86,297.57 c -20.6,-7.621 -56.31,-16.41 -88.79,-16.41 -42.24,0 -87.77,12.051 -111.53,37.121 -30.28,31.649 -32.55,76.52 -32.55,136.489 v 311.222 h -63.86 c -9.69,0 -11.88,2.219 -11.88,10.938 v 29.5 c 0,9.769 2.19,10.871 9.75,10.871 h 65.99 V 945.07 c 0,13.09 2.27,17.461 14.15,19.672 l 37.84,5.469 h 1.1 3.22 c 8.73,0 13.05,-6.582 13.05,-17.52 v -135.39 h 131.03 c 8.65,0 11.88,-2.211 11.88,-12.039 V 776.93 c 0,-8.719 -3.23,-10.938 -12.98,-10.938 h -129.93 v -322.16 c 0,-38.16 3.23,-68.703 21.63,-87.32 12.98,-13.09 33.58,-20.711 63.94,-20.711 24.86,0 51.98,7.621 67.09,11.98 3.3,1.11 6.53,1.11 8.65,1.11 6.53,0 6.53,-3.262 7.63,-7.621 l 5.42,-27.278 v -4.441 c 0,-5.469 -3.29,-8.719 -10.85,-11.981" style="fill:#6fc72d;fill-opacity:1;fill-rule:nonzero;stroke:none" transform="matrix(0.13333333,0,0,-0.13333333,0,658.32)"/>
      <path id="path22" d="m 9362.31,281.191 c -54.18,0 -109.33,18.559 -137.55,32.758 -6.46,3.25 -9.69,5.473 -9.69,9.832 0,1.11 0,3.25 1.1,5.469 l 12.98,33.859 c 2.2,5.481 3.23,6.512 6.46,6.512 1.09,0 3.29,0 5.49,-1.031 36.74,-18.629 87.63,-32.828 124.44,-32.828 72.58,0 120.24,36.078 120.24,96.047 0,50.281 -36.81,76.461 -90.99,98.339 l -64.96,26.184 c -66.07,26.238 -111.53,67.719 -111.53,132.129 0,88.5 79.04,139.82 173.26,139.82 43.34,0 85.57,-7.621 130.96,-29.5 5.5,-2.152 8.72,-5.551 8.72,-8.801 0,-1.039 -1.09,-2.148 -1.09,-3.191 l -10.79,-30.609 c -2.19,-6.571 -5.42,-8.789 -8.72,-8.789 -2.13,0 -4.32,1.179 -7.55,2.218 -28.16,14.192 -76.92,26.172 -111.53,26.172 -63.93,0 -101.84,-33.789 -101.84,-78.531 0,-45.91 26.03,-65.578 75.82,-86.281 l 76.91,-32.758 c 61.74,-26.25 111.52,-69.941 111.52,-137.602 0,-91.687 -73.61,-159.418 -191.66,-159.418" style="fill:#6fc72d;fill-opacity:1;fill-rule:nonzero;stroke:none" transform="matrix(0.13333333,0,0,-0.13333333,0,658.32)"/>
      <path id="path23" d="m 9362.31,281.191 c -54.18,0 -109.33,18.559 -137.55,32.758 -6.46,3.25 -9.69,5.473 -9.69,9.832 0,1.11 0,3.25 1.1,5.469 l 12.98,33.859 c 2.2,5.481 3.23,6.512 6.46,6.512 1.09,0 3.29,0 5.49,-1.031 36.74,-18.629 87.63,-32.828 124.44,-32.828 72.58,0 120.24,36.078 120.24,96.047 0,50.281 -36.81,76.461 -90.99,98.339 l -64.96,26.184 c -66.07,26.238 -111.53,67.719 -111.53,132.129 0,88.5 79.04,139.82 173.26,139.82 43.34,0 85.57,-7.621 130.96,-29.5 5.5,-2.152 8.72,-5.551 8.72,-8.801 0,-1.039 -1.09,-2.148 -1.09,-3.191 l -10.79,-30.609 c -2.19,-6.571 -5.42,-8.789 -8.72,-8.789 -2.13,0 -4.32,1.179 -7.55,2.218 -28.16,14.192 -76.92,26.172 -111.53,26.172 -63.93,0 -101.84,-33.789 -101.84,-78.531 0,-45.91 26.03,-65.578 75.82,-86.281 l 76.91,-32.758 c 61.74,-26.25 111.52,-69.941 111.52,-137.602 0,-91.687 -73.61,-159.418 -191.66,-159.418" style="fill:#6fc72d;fill-opacity:1;fill-rule:nonzero;stroke:none" transform="matrix(0.13333333,0,0,-0.13333333,0,658.32)"/>
      <path id="path24" d="m 10071.6,999.672 c -50.9,0 -89.87,-39.332 -89.87,-91.75 0,-31.582 23.87,-75.281 53.07,-110.25 l 29.3,-36.082 c 55.2,41.551 98.5,85.25 98.5,144.18 0,52.421 -35.8,93.902 -91,93.902 m -29.2,-317.723 c -72.55,-54.64 -139.65,-109.207 -139.65,-185.668 0,-90.582 73.55,-152.832 154.75,-152.832 80.2,0 146.2,31.641 197.1,80.742 z m 437.4,-384.347 c -4.3,-12.051 -8.6,-14.192 -25.9,-9.832 -45.5,10.871 -110.5,42.519 -162.5,93.902 -63.9,-59 -146.2,-100.481 -251.2,-100.481 -120.21,0 -214.36,85.11 -214.36,205.258 0,110.321 93.05,175.832 182.96,236.91 l -35.73,43.77 c -35.71,43.691 -61.73,84 -61.73,139.75 0,77.492 64.96,146.321 158.06,146.321 93.2,0 159.2,-59.001 159.2,-145.278 0,-76.461 -61.7,-133.18 -132.1,-185.602 l 203.6,-245.699 c 52,74.231 81.2,168.211 88.8,256.641 1.1,11.98 3.2,15.308 11.9,15.308 h 37.9 c 8.6,0 10.8,-3.328 9.7,-14.199 -6.4,-107.062 -44.3,-216.269 -110.4,-301.379 47.6,-47.023 104,-73.203 141.8,-87.402 12,-4.36 15.2,-7.68 10.9,-19.598 l -10.9,-28.39" style="fill:#6fc72d;fill-opacity:1;fill-rule:nonzero;stroke:none" transform="matrix(0.13333333,0,0,-0.13333333,0,658.32)"/>
      <path id="path25" d="m 10071.6,999.672 c -50.9,0 -89.87,-39.332 -89.87,-91.75 0,-31.582 23.87,-75.281 53.07,-110.25 l 29.3,-36.082 c 55.2,41.551 98.5,85.25 98.5,144.18 0,52.421 -35.8,93.902 -91,93.902 z m -29.2,-317.723 c -72.55,-54.64 -139.65,-109.207 -139.65,-185.668 0,-90.582 73.55,-152.832 154.75,-152.832 80.2,0 146.2,31.641 197.1,80.742 z m 437.4,-384.347 c -4.3,-12.051 -8.6,-14.192 -25.9,-9.832 -45.5,10.871 -110.5,42.519 -162.5,93.902 -63.9,-59 -146.2,-100.481 -251.2,-100.481 -120.21,0 -214.36,85.11 -214.36,205.258 0,110.321 93.05,175.832 182.96,236.91 l -35.73,43.77 c -35.71,43.691 -61.73,84 -61.73,139.75 0,77.492 64.96,146.321 158.06,146.321 93.2,0 159.2,-59.001 159.2,-145.278 0,-76.461 -61.7,-133.18 -132.1,-185.602 l 203.6,-245.699 c 52,74.231 81.2,168.211 88.8,256.641 1.1,11.98 3.2,15.308 11.9,15.308 h 37.9 c 8.6,0 10.8,-3.328 9.7,-14.199 -6.4,-107.062 -44.3,-216.269 -110.4,-301.379 47.6,-47.023 104,-73.203 141.8,-87.402 12,-4.36 15.2,-7.68 10.9,-19.598 l -10.9,-28.39" style="fill:#6fc72d;fill-opacity:1;fill-rule:nonzero;stroke:none" transform="matrix(0.13333333,0,0,-0.13333333,0,658.32)"/>
      <path id="path26" d="m 10995.4,772.563 c -55.2,0 -116.9,-33.872 -152.7,-75.352 V 419.789 c 31.5,-49.027 84.4,-84 142.9,-84 117,0 167.9,98.203 167.9,215.16 0,133.172 -48.7,221.614 -158.1,221.614 m -6.6,-491.415 c -59.5,0 -116.8,31.723 -149.3,70.981 l -1.1,-41.477 c 0,-15.312 -5.4,-19.672 -20.5,-19.672 h -27.2 c -11.9,0 -17.3,3.329 -17.3,16.411 v 732.679 c 0,13.09 2.2,17.46 14,19.67 l 38,5.47 h 1.1 3.2 c 8.7,0 13,-6.51 13,-17.52 V 759.402 c 32.5,34.969 92,68.828 163.5,68.828 153.8,0 218.7,-125.55 218.7,-271.878 0,-148.543 -74.7,-275.204 -236.1,-275.204" style="fill:#6fc72d;fill-opacity:1;fill-rule:nonzero;stroke:none" transform="matrix(0.13333333,0,0,-0.13333333,0,658.32)"/>
      <path id="path27" d="m 10995.4,772.563 c -55.2,0 -116.9,-33.872 -152.7,-75.352 V 419.789 c 31.5,-49.027 84.4,-84 142.9,-84 117,0 167.9,98.203 167.9,215.16 0,133.172 -48.7,221.614 -158.1,221.614 z m -6.6,-491.415 c -59.5,0 -116.8,31.723 -149.3,70.981 l -1.1,-41.477 c 0,-15.312 -5.4,-19.672 -20.5,-19.672 h -27.2 c -11.9,0 -17.3,3.329 -17.3,16.411 v 732.679 c 0,13.09 2.2,17.46 14,19.67 l 38,5.47 h 1.1 3.2 c 8.7,0 13,-6.51 13,-17.52 V 759.402 c 32.5,34.969 92,68.828 163.5,68.828 153.8,0 218.7,-125.55 218.7,-271.878 0,-148.543 -74.7,-275.204 -236.1,-275.204" style="fill:#6fc72d;fill-opacity:1;fill-rule:nonzero;stroke:none" transform="matrix(0.13333333,0,0,-0.13333333,0,658.32)"/>
      <path id="path28" d="m 11713.4,291.012 h -33.6 c -11.9,0 -17.3,6.578 -17.3,19.668 l -1.1,38.218 c -49.8,-44.867 -108.3,-67.726 -170.1,-67.726 -54.1,0 -94.1,16.418 -122.3,43.699 -34.6,34.899 -48.7,87.328 -48.7,154.988 v 317.789 c 0,13.161 5.4,19.602 17.4,19.602 h 34.6 c 11.9,0 17.3,-6.441 17.3,-19.602 V 489.691 c 0,-53.461 8.7,-93.91 31.4,-120.082 16.2,-18.558 46.6,-31.718 87.6,-31.718 52,0 117.1,36.078 152.8,72.089 v 387.668 c 0,13.161 5.5,19.602 17.4,19.602 h 34.6 c 11.8,0 17.3,-6.441 17.3,-19.602 V 310.68 c 0,-13.09 -5.5,-19.668 -17.3,-19.668" style="fill:#6fc72d;fill-opacity:1;fill-rule:nonzero;stroke:none" transform="matrix(0.13333333,0,0,-0.13333333,0,658.32)"/>
      <path id="path29" d="m 11713.4,291.012 h -33.6 c -11.9,0 -17.3,6.578 -17.3,19.668 l -1.1,38.218 c -49.8,-44.867 -108.3,-67.726 -170.1,-67.726 -54.1,0 -94.1,16.418 -122.3,43.699 -34.6,34.899 -48.7,87.328 -48.7,154.988 v 317.789 c 0,13.161 5.4,19.602 17.4,19.602 h 34.6 c 11.9,0 17.3,-6.441 17.3,-19.602 V 489.691 c 0,-53.461 8.7,-93.91 31.4,-120.082 16.2,-18.558 46.6,-31.718 87.6,-31.718 52,0 117.1,36.078 152.8,72.089 v 387.668 c 0,13.161 5.5,19.602 17.4,19.602 h 34.6 c 11.8,0 17.3,-6.441 17.3,-19.602 V 310.68 c 0,-13.09 -5.5,-19.668 -17.3,-19.668" style="fill:#6fc72d;fill-opacity:1;fill-rule:nonzero;stroke:none" transform="matrix(0.13333333,0,0,-0.13333333,0,658.32)"/>
      <path id="path30" d="m 11964.6,281.191 c -54.1,0 -109.3,18.559 -137.5,32.758 -6.5,3.25 -9.8,5.473 -9.8,9.832 0,1.11 0,3.25 1.2,5.469 l 13,33.859 c 2.1,5.481 3.2,6.512 6.4,6.512 1.2,0 3.2,0 5.5,-1.031 36.8,-18.629 87.6,-32.828 124.5,-32.828 72.5,0 120.2,36.078 120.2,96.047 0,50.281 -36.8,76.461 -91,98.339 l -65,26.184 c -66,26.238 -111.5,67.719 -111.5,132.129 0,88.5 79.1,139.82 173.3,139.82 43.3,0 85.5,-7.621 130.9,-29.5 5.5,-2.152 8.8,-5.551 8.8,-8.801 0,-1.039 -1.1,-2.148 -1.1,-3.191 l -10.8,-30.609 c -2.2,-6.571 -5.4,-8.789 -8.7,-8.789 -2.2,0 -4.4,1.179 -7.6,2.218 -28.2,14.192 -76.9,26.172 -111.5,26.172 -63.9,0 -101.9,-33.789 -101.9,-78.531 0,-45.91 26.1,-65.578 75.9,-86.281 l 76.9,-32.758 c 61.6,-26.25 111.5,-69.941 111.5,-137.602 0,-91.687 -73.7,-159.418 -191.7,-159.418" style="fill:#6fc72d;fill-opacity:1;fill-rule:nonzero;stroke:none" transform="matrix(0.13333333,0,0,-0.13333333,0,658.32)"/>
      <path id="path31" d="m 11964.6,281.191 c -54.1,0 -109.3,18.559 -137.5,32.758 -6.5,3.25 -9.8,5.473 -9.8,9.832 0,1.11 0,3.25 1.2,5.469 l 13,33.859 c 2.1,5.481 3.2,6.512 6.4,6.512 1.2,0 3.2,0 5.5,-1.031 36.8,-18.629 87.6,-32.828 124.5,-32.828 72.5,0 120.2,36.078 120.2,96.047 0,50.281 -36.8,76.461 -91,98.339 l -65,26.184 c -66,26.238 -111.5,67.719 -111.5,132.129 0,88.5 79.1,139.82 173.3,139.82 43.3,0 85.5,-7.621 130.9,-29.5 5.5,-2.152 8.8,-5.551 8.8,-8.801 0,-1.039 -1.1,-2.148 -1.1,-3.191 l -10.8,-30.609 c -2.2,-6.571 -5.4,-8.789 -8.7,-8.789 -2.2,0 -4.4,1.179 -7.6,2.218 -28.2,14.192 -76.9,26.172 -111.5,26.172 -63.9,0 -101.9,-33.789 -101.9,-78.531 0,-45.91 26.1,-65.578 75.9,-86.281 l 76.9,-32.758 c 61.6,-26.25 111.5,-69.941 111.5,-137.602 0,-91.687 -73.7,-159.418 -191.7,-159.418" style="fill:#6fc72d;fill-opacity:1;fill-rule:nonzero;stroke:none" transform="matrix(0.13333333,0,0,-0.13333333,0,658.32)"/>
      <path id="path32" d="m 12302.5,291.012 h -34.6 c -11.9,0 -17.3,6.578 -17.3,19.668 v 486.968 c 0,13.161 5.4,19.602 17.3,19.602 h 34.6 c 11.9,0 17.4,-6.441 17.4,-19.602 V 310.68 c 0,-13.09 -5.5,-19.668 -17.4,-19.668 m -17.2,606.019 c -25,0 -44.5,17.52 -44.5,42.59 0,25.129 19.5,42.59 44.5,42.59 24.8,0 45.4,-17.461 45.4,-42.59 0,-25.07 -20.6,-42.59 -45.4,-42.59" style="fill:#6fc72d;fill-opacity:1;fill-rule:nonzero;stroke:none" transform="matrix(0.13333333,0,0,-0.13333333,0,658.32)"/>
      <path id="path33" d="m 12302.5,291.012 h -34.6 c -11.9,0 -17.3,6.578 -17.3,19.668 v 486.968 c 0,13.161 5.4,19.602 17.3,19.602 h 34.6 c 11.9,0 17.4,-6.441 17.4,-19.602 V 310.68 c 0,-13.09 -5.5,-19.668 -17.4,-19.668 z m -17.2,606.019 c -25,0 -44.5,17.52 -44.5,42.59 0,25.129 19.5,42.59 44.5,42.59 24.8,0 45.4,-17.461 45.4,-42.59 0,-25.07 -20.6,-42.59 -45.4,-42.59" style="fill:#6fc72d;fill-opacity:1;fill-rule:nonzero;stroke:none" transform="matrix(0.13333333,0,0,-0.13333333,0,658.32)"/>
      <path id="path34" d="m 12860.2,291.012 h -34.7 c -11.9,0 -17.3,6.578 -17.3,19.668 v 311.14 c 0,87.399 -20.6,151.801 -120.2,151.801 -54.2,0 -121.3,-31.652 -162.4,-69.871 V 310.68 c 0,-13.09 -5.5,-19.668 -17.4,-19.668 h -34.6 c -11.9,0 -17.3,6.578 -17.3,19.668 v 486.968 c 0,13.161 5.4,19.602 17.3,19.602 h 33.6 c 11.9,0 17.2,-6.441 17.2,-19.602 l 1.2,-37.117 c 49.7,44.739 119.2,67.731 180.8,67.731 126.7,0 171.1,-77.563 171.1,-196.602 V 310.68 c 0,-13.09 -5.4,-19.668 -17.3,-19.668" style="fill:#6fc72d;fill-opacity:1;fill-rule:nonzero;stroke:none" transform="matrix(0.13333333,0,0,-0.13333333,0,658.32)"/>
      <path id="path35" d="m 12860.2,291.012 h -34.7 c -11.9,0 -17.3,6.578 -17.3,19.668 v 311.14 c 0,87.399 -20.6,151.801 -120.2,151.801 -54.2,0 -121.3,-31.652 -162.4,-69.871 V 310.68 c 0,-13.09 -5.5,-19.668 -17.4,-19.668 h -34.6 c -11.9,0 -17.3,6.578 -17.3,19.668 v 486.968 c 0,13.161 5.4,19.602 17.3,19.602 h 33.6 c 11.9,0 17.2,-6.441 17.2,-19.602 l 1.2,-37.117 c 49.7,44.739 119.2,67.731 180.8,67.731 126.7,0 171.1,-77.563 171.1,-196.602 V 310.68 c 0,-13.09 -5.4,-19.668 -17.3,-19.668" style="fill:#6fc72d;fill-opacity:1;fill-rule:nonzero;stroke:none" transform="matrix(0.13333333,0,0,-0.13333333,0,658.32)"/>
      <path id="path36" d="m 13214.4,774.75 c -101.8,0 -158.1,-83.031 -167.9,-173.609 h 301 c 1.1,7.609 1.1,14.191 1.1,21.808 0,82.961 -43.2,151.801 -134.2,151.801 m 173.2,-222.781 h -95.3 -247.9 c 0,-115.789 57.3,-211.84 181.8,-211.84 46.6,0 103,10.941 135.4,25.141 3.3,1.101 5.4,2.21 7.6,2.21 5.4,0 9.7,-4.359 10.8,-9.832 l 5.4,-25.136 c 1.1,-3.25 1.1,-6.582 1.1,-8.731 0,-5.472 -3.3,-8.718 -10.8,-12.039 -43.4,-20.711 -110.4,-30.551 -155.9,-30.551 -165.8,0 -246.9,112.469 -246.9,274.098 0,151.731 92,272.992 243.6,272.992 127.8,0 201.4,-98.34 201.4,-226.101 v -20.641 c 0,-24.027 -3.2,-29.57 -30.3,-29.57" style="fill:#6fc72d;fill-opacity:1;fill-rule:nonzero;stroke:none" transform="matrix(0.13333333,0,0,-0.13333333,0,658.32)"/>
      <path id="path37" d="m 13214.4,774.75 c -101.8,0 -158.1,-83.031 -167.9,-173.609 h 301 c 1.1,7.609 1.1,14.191 1.1,21.808 0,82.961 -43.2,151.801 -134.2,151.801 z m 173.2,-222.781 h -343.2 c 0,-115.789 57.3,-211.84 181.8,-211.84 46.6,0 103,10.941 135.4,25.141 3.3,1.101 5.4,2.21 7.6,2.21 5.4,0 9.7,-4.359 10.8,-9.832 l 5.4,-25.136 c 1.1,-3.25 1.1,-6.582 1.1,-8.731 0,-5.472 -3.3,-8.718 -10.8,-12.039 -43.4,-20.711 -110.4,-30.551 -155.9,-30.551 -165.8,0 -246.9,112.469 -246.9,274.098 0,151.731 92,272.992 243.6,272.992 127.8,0 201.4,-98.34 201.4,-226.101 v -20.641 c 0,-24.027 -3.2,-29.57 -30.3,-29.57" style="fill:#6fc72d;fill-opacity:1;fill-rule:nonzero;stroke:none" transform="matrix(0.13333333,0,0,-0.13333333,0,658.32)"/>
      <path id="path38" d="m 13617.2,281.191 c -54.1,0 -109.3,18.559 -137.5,32.758 -6.5,3.25 -9.8,5.473 -9.8,9.832 0,1.11 0,3.25 1.2,5.469 l 12.9,33.859 c 2.2,5.481 3.3,6.512 6.5,6.512 1.1,0 3.3,0 5.5,-1.031 36.8,-18.629 87.6,-32.828 124.5,-32.828 72.6,0 120.2,36.078 120.2,96.047 0,50.281 -36.8,76.461 -91,98.339 l -64.9,26.184 c -66.1,26.238 -111.6,67.719 -111.6,132.129 0,88.5 79,139.82 173.3,139.82 43.3,0 85.6,-7.621 131,-29.5 5.4,-2.152 8.6,-5.551 8.6,-8.801 0,-1.039 -1.1,-2.148 -1.1,-3.191 l -10.8,-30.609 c -2.1,-6.571 -5.4,-8.789 -8.6,-8.789 -2.2,0 -4.3,1.179 -7.6,2.218 -28.2,14.192 -76.9,26.172 -111.5,26.172 -63.9,0 -101.8,-33.789 -101.8,-78.531 0,-45.91 26,-65.578 75.8,-86.281 l 76.8,-32.758 c 61.8,-26.25 111.5,-69.941 111.5,-137.602 0,-91.687 -73.6,-159.418 -191.6,-159.418" style="fill:#6fc72d;fill-opacity:1;fill-rule:nonzero;stroke:none" transform="matrix(0.13333333,0,0,-0.13333333,0,658.32)"/>
      <path id="path39" d="m 13617.2,281.191 c -54.1,0 -109.3,18.559 -137.5,32.758 -6.5,3.25 -9.8,5.473 -9.8,9.832 0,1.11 0,3.25 1.2,5.469 l 12.9,33.859 c 2.2,5.481 3.3,6.512 6.5,6.512 1.1,0 3.3,0 5.5,-1.031 36.8,-18.629 87.6,-32.828 124.5,-32.828 72.6,0 120.2,36.078 120.2,96.047 0,50.281 -36.8,76.461 -91,98.339 l -64.9,26.184 c -66.1,26.238 -111.6,67.719 -111.6,132.129 0,88.5 79,139.82 173.3,139.82 43.3,0 85.6,-7.621 131,-29.5 5.4,-2.152 8.6,-5.551 8.6,-8.801 0,-1.039 -1.1,-2.148 -1.1,-3.191 l -10.8,-30.609 c -2.1,-6.571 -5.4,-8.789 -8.6,-8.789 -2.2,0 -4.3,1.179 -7.6,2.218 -28.2,14.192 -76.9,26.172 -111.5,26.172 -63.9,0 -101.8,-33.789 -101.8,-78.531 0,-45.91 26,-65.578 75.8,-86.281 l 76.8,-32.758 c 61.8,-26.25 111.5,-69.941 111.5,-137.602 0,-91.687 -73.6,-159.418 -191.6,-159.418" style="fill:#6fc72d;fill-opacity:1;fill-rule:nonzero;stroke:none" transform="matrix(0.13333333,0,0,-0.13333333,0,658.32)"/>
      <path id="path40" d="m 14002.8,281.191 c -54.1,0 -109.4,18.559 -137.6,32.758 -6.4,3.25 -9.7,5.473 -9.7,9.832 0,1.11 0,3.25 1.1,5.469 l 12.9,33.859 c 2.2,5.481 3.3,6.512 6.6,6.512 1.1,0 3.2,0 5.4,-1.031 36.8,-18.629 87.6,-32.828 124.5,-32.828 72.6,0 120.2,36.078 120.2,96.047 0,50.281 -36.8,76.461 -91,98.339 l -64.9,26.184 c -66.1,26.238 -111.5,67.719 -111.5,132.129 0,88.5 78.9,139.82 173.2,139.82 43.3,0 85.6,-7.621 131,-29.5 5.4,-2.152 8.6,-5.551 8.6,-8.801 0,-1.039 -1,-2.148 -1,-3.191 l -10.8,-30.609 c -2.2,-6.571 -5.5,-8.789 -8.7,-8.789 -2.2,0 -4.3,1.179 -7.6,2.218 -28.2,14.192 -76.9,26.172 -111.5,26.172 -63.9,0 -101.8,-33.789 -101.8,-78.531 0,-45.91 26,-65.578 75.8,-86.281 l 76.8,-32.758 c 61.8,-26.25 111.6,-69.941 111.6,-137.602 0,-91.687 -73.7,-159.418 -191.6,-159.418" style="fill:#6fc72d;fill-opacity:1;fill-rule:nonzero;stroke:none" transform="matrix(0.13333333,0,0,-0.13333333,0,658.32)"/>
      <path id="path41" d="m 14002.8,281.191 c -54.1,0 -109.4,18.559 -137.6,32.758 -6.4,3.25 -9.7,5.473 -9.7,9.832 0,1.11 0,3.25 1.1,5.469 l 12.9,33.859 c 2.2,5.481 3.3,6.512 6.6,6.512 1.1,0 3.2,0 5.4,-1.031 36.8,-18.629 87.6,-32.828 124.5,-32.828 72.6,0 120.2,36.078 120.2,96.047 0,50.281 -36.8,76.461 -91,98.339 l -64.9,26.184 c -66.1,26.238 -111.5,67.719 -111.5,132.129 0,88.5 78.9,139.82 173.2,139.82 43.3,0 85.6,-7.621 131,-29.5 5.4,-2.152 8.6,-5.551 8.6,-8.801 0,-1.039 -1,-2.148 -1,-3.191 l -10.8,-30.609 c -2.2,-6.571 -5.5,-8.789 -8.7,-8.789 -2.2,0 -4.3,1.179 -7.6,2.218 -28.2,14.192 -76.9,26.172 -111.5,26.172 -63.9,0 -101.8,-33.789 -101.8,-78.531 0,-45.91 26,-65.578 75.8,-86.281 l 76.8,-32.758 c 61.8,-26.25 111.6,-69.941 111.6,-137.602 0,-91.687 -73.7,-159.418 -191.6,-159.418" style="fill:#6fc72d;fill-opacity:1;fill-rule:nonzero;stroke:none" transform="matrix(0.13333333,0,0,-0.13333333,0,658.32)"/>
      <path id="path42" d="m 14838.7,681.91 c -28.1,59.012 -86.7,91.762 -144,91.762 -93.1,0 -161.3,-84.141 -161.3,-223.891 0,-138.64 68.2,-209.621 145.1,-209.621 79,0 138.6,65.512 160.2,132.129 z m 102.9,-390.918 h -41.1 c -42.3,0 -60.6,36.078 -60.6,78.668 v 14.192 c -21.7,-53.532 -95.3,-102.704 -166.8,-102.704 -147.3,0 -211.1,128.883 -211.1,264.344 0,179.008 102.8,282.75 228.4,282.75 52,0 112.6,-21.812 148.3,-68.762 l 1.2,40.372 c 0,13.089 7.5,17.449 19.4,17.449 h 32.6 c 11.8,0 16.2,-6.512 16.2,-19.602 V 414.402 c 0,-30.55 0,-51.32 4.3,-60.05 4.3,-9.832 11.9,-13.082 22.7,-13.082 h 7.6 c 8.7,0 11.9,-2.219 11.9,-12.051 V 302 c 0,-8.789 -3.2,-11.008 -13,-11.008" style="fill:#6fc72d;fill-opacity:1;fill-rule:nonzero;stroke:none" transform="matrix(0.13333333,0,0,-0.13333333,0,658.32)"/>
      <path id="path43" d="m 14838.7,681.91 c -28.1,59.012 -86.7,91.762 -144,91.762 -93.1,0 -161.3,-84.141 -161.3,-223.891 0,-138.64 68.2,-209.621 145.1,-209.621 79,0 138.6,65.512 160.2,132.129 z m 102.9,-390.918 h -41.1 c -42.3,0 -60.6,36.078 -60.6,78.668 v 14.192 c -21.7,-53.532 -95.3,-102.704 -166.8,-102.704 -147.3,0 -211.1,128.883 -211.1,264.344 0,179.008 102.8,282.75 228.4,282.75 52,0 112.6,-21.812 148.3,-68.762 l 1.2,40.372 c 0,13.089 7.5,17.449 19.4,17.449 h 32.6 c 11.8,0 16.2,-6.512 16.2,-19.602 V 414.402 c 0,-30.55 0,-51.32 4.3,-60.05 4.3,-9.832 11.9,-13.082 22.7,-13.082 h 7.6 c 8.7,0 11.9,-2.219 11.9,-12.051 V 302 c 0,-8.789 -3.2,-11.008 -13,-11.008" style="fill:#6fc72d;fill-opacity:1;fill-rule:nonzero;stroke:none" transform="matrix(0.13333333,0,0,-0.13333333,0,658.32)"/>
      <path id="path44" d="m 15390,684.102 c -23.8,49.168 -82.3,89.539 -141.9,89.539 -102.9,0 -170,-80.809 -170,-218.352 0,-132.129 60.6,-219.527 159.2,-219.527 57.4,0 122.3,37.117 152.7,83.039 z m 56.2,-393.071 h -31.3 c -15.2,0 -20.6,4.36 -20.6,19.598 l -1.1,45.91 c -37.9,-45.91 -101.8,-75.348 -166.7,-75.348 -155.9,0 -219.9,129.918 -219.9,271.891 0,165.988 98.6,275.199 236.1,275.199 50.9,0 114.8,-24.031 147.3,-66.621 v 42.59 235.8 c 0,13.09 2.1,18.63 14,19.67 l 39,5.47 h 1.1 3.2 c 8.7,0 11.9,-6.51 11.9,-17.45 V 806.398 310.629 c 0,-11.981 -5.3,-19.598 -13,-19.598" style="fill:#6fc72d;fill-opacity:1;fill-rule:nonzero;stroke:none" transform="matrix(0.13333333,0,0,-0.13333333,0,658.32)"/>
      <path id="path45" d="m 15390,684.102 c -23.8,49.168 -82.3,89.539 -141.9,89.539 -102.9,0 -170,-80.809 -170,-218.352 0,-132.129 60.6,-219.527 159.2,-219.527 57.4,0 122.3,37.117 152.7,83.039 z m 56.2,-393.071 h -31.3 c -15.2,0 -20.6,4.36 -20.6,19.598 l -1.1,45.91 c -37.9,-45.91 -101.8,-75.348 -166.7,-75.348 -155.9,0 -219.9,129.918 -219.9,271.891 0,165.988 98.6,275.199 236.1,275.199 50.9,0 114.8,-24.031 147.3,-66.621 v 42.59 235.8 c 0,13.09 2.1,18.63 14,19.67 l 39,5.47 h 1.1 3.2 c 8.7,0 11.9,-6.51 11.9,-17.45 V 806.398 310.629 c 0,-11.981 -5.3,-19.598 -13,-19.598" style="fill:#6fc72d;fill-opacity:1;fill-rule:nonzero;stroke:none" transform="matrix(0.13333333,0,0,-0.13333333,0,658.32)"/>
      <path id="path46" d="M 15959.6,800.961 15785.2,306.23 c -4.2,-10.871 -10.8,-15.238 -20.5,-15.238 h -42.2 c -13,0 -19.5,5.477 -22.8,15.238 l -172.1,493.551 c -1.1,2.219 -1.1,3.399 -1.1,5.481 0,6.57 5.4,12.047 15.1,12.047 h 38 c 15.1,0 19.4,-3.329 22.7,-12.047 l 145,-432.34 h 2.2 L 15891.4,802 c 3.2,10.941 10.8,15.309 22.7,15.309 h 32.5 c 7.6,0 14,-3.329 14,-10.879 0,-2.211 0,-3.25 -1,-5.469" style="fill:#6fc72d;fill-opacity:1;fill-rule:nonzero;stroke:none" transform="matrix(0.13333333,0,0,-0.13333333,0,658.32)"/>
      <path id="path47" d="M 15959.6,800.961 15785.2,306.23 c -4.2,-10.871 -10.8,-15.238 -20.5,-15.238 h -42.2 c -13,0 -19.5,5.477 -22.8,15.238 l -172.1,493.551 c -1.1,2.219 -1.1,3.399 -1.1,5.481 0,6.57 5.4,12.047 15.1,12.047 h 38 c 15.1,0 19.4,-3.329 22.7,-12.047 l 145,-432.34 h 2.2 L 15891.4,802 c 3.2,10.941 10.8,15.309 22.7,15.309 h 32.5 c 7.6,0 14,-3.329 14,-10.879 0,-2.211 0,-3.25 -1,-5.469" style="fill:#6fc72d;fill-opacity:1;fill-rule:nonzero;stroke:none" transform="matrix(0.13333333,0,0,-0.13333333,0,658.32)"/>
      <path id="path48" d="m 16092.8,291.012 h -34.6 c -11.9,0 -17.3,6.578 -17.3,19.668 v 486.968 c 0,13.161 5.4,19.602 17.3,19.602 h 34.6 c 11.9,0 17.3,-6.441 17.3,-19.602 V 310.68 c 0,-13.09 -5.4,-19.668 -17.3,-19.668 m -17.3,606.019 c -24.9,0 -44.4,17.52 -44.4,42.59 0,25.129 19.5,42.59 44.4,42.59 25,0 45.5,-17.461 45.5,-42.59 0,-25.07 -20.5,-42.59 -45.5,-42.59" style="fill:#6fc72d;fill-opacity:1;fill-rule:nonzero;stroke:none" transform="matrix(0.13333333,0,0,-0.13333333,0,658.32)"/>
      <path id="path49" d="m 16092.8,291.012 h -34.6 c -11.9,0 -17.3,6.578 -17.3,19.668 v 486.968 c 0,13.161 5.4,19.602 17.3,19.602 h 34.6 c 11.9,0 17.3,-6.441 17.3,-19.602 V 310.68 c 0,-13.09 -5.4,-19.668 -17.3,-19.668 z m -17.3,606.019 c -24.9,0 -44.4,17.52 -44.4,42.59 0,25.129 19.5,42.59 44.4,42.59 25,0 45.5,-17.461 45.5,-42.59 0,-25.07 -20.5,-42.59 -45.5,-42.59" style="fill:#6fc72d;fill-opacity:1;fill-rule:nonzero;stroke:none" transform="matrix(0.13333333,0,0,-0.13333333,0,658.32)"/>
      <path id="path50" d="m 16357.1,281.191 c -54.1,0 -109.4,18.559 -137.5,32.758 -6.5,3.25 -9.8,5.473 -9.8,9.832 0,1.11 0,3.25 1.1,5.469 l 13,33.859 c 2.1,5.481 3.2,6.512 6.5,6.512 1.1,0 3.2,0 5.5,-1.031 36.7,-18.629 87.6,-32.828 124.4,-32.828 72.6,0 120.2,36.078 120.2,96.047 0,50.281 -36.8,76.461 -90.9,98.339 l -65,26.184 c -66.1,26.238 -111.5,67.719 -111.5,132.129 0,88.5 79,139.82 173.3,139.82 43.3,0 85.5,-7.621 130.9,-29.5 5.4,-2.152 8.7,-5.551 8.7,-8.801 0,-1.039 -1.1,-2.148 -1.1,-3.191 l -10.8,-30.609 c -2.2,-6.571 -5.4,-8.789 -8.7,-8.789 -2.2,0 -4.3,1.179 -7.5,2.218 -28.2,14.192 -77,26.172 -111.5,26.172 -63.9,0 -101.9,-33.789 -101.9,-78.531 0,-45.91 26.1,-65.578 75.8,-86.281 l 76.9,-32.758 c 61.7,-26.25 111.5,-69.941 111.5,-137.602 0,-91.687 -73.6,-159.418 -191.6,-159.418" style="fill:#6fc72d;fill-opacity:1;fill-rule:nonzero;stroke:none" transform="matrix(0.13333333,0,0,-0.13333333,0,658.32)"/>
      <path id="path51" d="m 16357.1,281.191 c -54.1,0 -109.4,18.559 -137.5,32.758 -6.5,3.25 -9.8,5.473 -9.8,9.832 0,1.11 0,3.25 1.1,5.469 l 13,33.859 c 2.1,5.481 3.2,6.512 6.5,6.512 1.1,0 3.2,0 5.5,-1.031 36.7,-18.629 87.6,-32.828 124.4,-32.828 72.6,0 120.2,36.078 120.2,96.047 0,50.281 -36.8,76.461 -90.9,98.339 l -65,26.184 c -66.1,26.238 -111.5,67.719 -111.5,132.129 0,88.5 79,139.82 173.3,139.82 43.3,0 85.5,-7.621 130.9,-29.5 5.4,-2.152 8.7,-5.551 8.7,-8.801 0,-1.039 -1.1,-2.148 -1.1,-3.191 l -10.8,-30.609 c -2.2,-6.571 -5.4,-8.789 -8.7,-8.789 -2.2,0 -4.3,1.179 -7.5,2.218 -28.2,14.192 -77,26.172 -111.5,26.172 -63.9,0 -101.9,-33.789 -101.9,-78.531 0,-45.91 26.1,-65.578 75.8,-86.281 l 76.9,-32.758 c 61.7,-26.25 111.5,-69.941 111.5,-137.602 0,-91.687 -73.6,-159.418 -191.6,-159.418" style="fill:#6fc72d;fill-opacity:1;fill-rule:nonzero;stroke:none" transform="matrix(0.13333333,0,0,-0.13333333,0,658.32)"/>
      <path id="path52" d="m 16845.5,774.75 c -101.8,0 -158.1,-83.031 -167.9,-173.609 h 301.1 c 1,7.609 1,14.191 1,21.808 0,82.961 -43.3,151.801 -134.2,151.801 m 173.2,-222.781 h -95.3 -247.9 c 0,-115.789 57.3,-211.84 181.8,-211.84 46.6,0 103,10.941 135.5,25.141 3.2,1.101 5.4,2.21 7.5,2.21 5.4,0 9.8,-4.359 10.8,-9.832 l 5.5,-25.136 c 1,-3.25 1,-6.582 1,-8.731 0,-5.472 -3.2,-8.718 -10.8,-12.039 -43.4,-20.711 -110.5,-30.551 -155.8,-30.551 -165.8,0 -247,112.469 -247,274.098 0,151.731 92.1,272.992 243.7,272.992 127.7,0 201.4,-98.34 201.4,-226.101 v -20.641 c 0,-24.027 -3.3,-29.57 -30.4,-29.57" style="fill:#6fc72d;fill-opacity:1;fill-rule:nonzero;stroke:none" transform="matrix(0.13333333,0,0,-0.13333333,0,658.32)"/>
      <path id="path53" d="m 16845.5,774.75 c -101.8,0 -158.1,-83.031 -167.9,-173.609 h 301.1 c 1,7.609 1,14.191 1,21.808 0,82.961 -43.3,151.801 -134.2,151.801 z m 173.2,-222.781 h -343.2 c 0,-115.789 57.3,-211.84 181.8,-211.84 46.6,0 103,10.941 135.5,25.141 3.2,1.101 5.4,2.21 7.5,2.21 5.4,0 9.8,-4.359 10.8,-9.832 l 5.5,-25.136 c 1,-3.25 1,-6.582 1,-8.731 0,-5.472 -3.2,-8.718 -10.8,-12.039 -43.4,-20.711 -110.5,-30.551 -155.8,-30.551 -165.8,0 -247,112.469 -247,274.098 0,151.731 92.1,272.992 243.7,272.992 127.7,0 201.4,-98.34 201.4,-226.101 v -20.641 c 0,-24.027 -3.3,-29.57 -30.4,-29.57" style="fill:#6fc72d;fill-opacity:1;fill-rule:nonzero;stroke:none" transform="matrix(0.13333333,0,0,-0.13333333,0,658.32)"/>
      <path id="path54" d="m 17363.1,776.941 c -1.1,-5.543 -4.3,-8.73 -8.6,-8.73 h -2.2 c -10.8,2.148 -22.8,4.371 -34.6,4.371 -39,0 -82.4,-29.5 -110.5,-73.273 V 310.672 c 0,-13.09 -5.4,-19.672 -17.3,-19.672 h -34.6 c -11.9,0 -17.4,6.582 -17.4,19.672 v 486.969 c 0,13.16 5.5,19.668 17.4,19.668 h 33.5 c 11.9,0 17.3,-6.508 17.3,-19.668 l 1.1,-38.219 c 21.7,32.82 67.1,68.84 121.3,68.84 7.6,0 20.5,-1.11 31.4,-3.262 6.5,-1.18 8.7,-5.539 8.7,-9.898 v -2.153 l -5.5,-36.008" style="fill:#6fc72d;fill-opacity:1;fill-rule:nonzero;stroke:none" transform="matrix(0.13333333,0,0,-0.13333333,0,658.32)"/>
      <path id="path55" d="m 17363.1,776.941 c -1.1,-5.543 -4.3,-8.73 -8.6,-8.73 h -2.2 c -10.8,2.148 -22.8,4.371 -34.6,4.371 -39,0 -82.4,-29.5 -110.5,-73.273 V 310.672 c 0,-13.09 -5.4,-19.672 -17.3,-19.672 h -34.6 c -11.9,0 -17.4,6.582 -17.4,19.672 v 486.969 c 0,13.16 5.5,19.668 17.4,19.668 h 33.5 c 11.9,0 17.3,-6.508 17.3,-19.668 l 1.1,-38.219 c 21.7,32.82 67.1,68.84 121.3,68.84 7.6,0 20.5,-1.11 31.4,-3.262 6.5,-1.18 8.7,-5.539 8.7,-9.898 v -2.153 l -5.5,-36.008" style="fill:#6fc72d;fill-opacity:1;fill-rule:nonzero;stroke:none" transform="matrix(0.13333333,0,0,-0.13333333,0,658.32)"/>
      <path id="path56" d="m 17544,281.191 c -54.1,0 -109.4,18.559 -137.5,32.758 -6.5,3.25 -9.8,5.473 -9.8,9.832 0,1.11 0,3.25 1.2,5.469 l 12.9,33.859 c 2.2,5.481 3.3,6.512 6.5,6.512 1.1,0 3.3,0 5.5,-1.031 36.8,-18.629 87.6,-32.828 124.5,-32.828 72.5,0 120.1,36.078 120.1,96.047 0,50.281 -36.7,76.461 -91,98.339 l -64.9,26.184 c -66,26.238 -111.5,67.719 -111.5,132.129 0,88.5 79,139.82 173.3,139.82 43.3,0 85.6,-7.621 130.9,-29.5 5.5,-2.152 8.7,-5.551 8.7,-8.801 0,-1.039 -1,-2.148 -1,-3.191 L 17701,756.18 c -2.1,-6.571 -5.4,-8.789 -8.6,-8.789 -2.2,0 -4.4,1.179 -7.7,2.218 -28.1,14.192 -76.8,26.172 -111.4,26.172 -64,0 -101.9,-33.789 -101.9,-78.531 0,-45.91 26.1,-65.578 75.9,-86.281 l 76.8,-32.758 c 61.7,-26.25 111.5,-69.941 111.5,-137.602 0,-91.687 -73.6,-159.418 -191.6,-159.418" style="fill:#6fc72d;fill-opacity:1;fill-rule:nonzero;stroke:none" transform="matrix(0.13333333,0,0,-0.13333333,0,658.32)"/>
      <path id="path57" d="m 17544,281.191 c -54.1,0 -109.4,18.559 -137.5,32.758 -6.5,3.25 -9.8,5.473 -9.8,9.832 0,1.11 0,3.25 1.2,5.469 l 12.9,33.859 c 2.2,5.481 3.3,6.512 6.5,6.512 1.1,0 3.3,0 5.5,-1.031 36.8,-18.629 87.6,-32.828 124.5,-32.828 72.5,0 120.1,36.078 120.1,96.047 0,50.281 -36.7,76.461 -91,98.339 l -64.9,26.184 c -66,26.238 -111.5,67.719 -111.5,132.129 0,88.5 79,139.82 173.3,139.82 43.3,0 85.6,-7.621 130.9,-29.5 5.5,-2.152 8.7,-5.551 8.7,-8.801 0,-1.039 -1,-2.148 -1,-3.191 L 17701,756.18 c -2.1,-6.571 -5.4,-8.789 -8.6,-8.789 -2.2,0 -4.4,1.179 -7.7,2.218 -28.1,14.192 -76.8,26.172 -111.4,26.172 -64,0 -101.9,-33.789 -101.9,-78.531 0,-45.91 26.1,-65.578 75.9,-86.281 l 76.8,-32.758 c 61.7,-26.25 111.5,-69.941 111.5,-137.602 0,-91.687 -73.6,-159.418 -191.6,-159.418" style="fill:#6fc72d;fill-opacity:1;fill-rule:nonzero;stroke:none" transform="matrix(0.13333333,0,0,-0.13333333,0,658.32)"/>
      <path id="path58" d="m 4927.49,2151.62 c -172.68,0 -348.97,59.23 -438.79,104.43 -20.69,10.48 -31.08,17.4 -31.08,31.34 0,3.56 0,10.48 3.43,17.41 l 41.39,108.16 c 7.04,17.31 10.48,20.87 20.78,20.87 3.43,0 10.39,0 17.26,-3.56 117.56,-59.14 279.93,-104.52 397.4,-104.52 231.51,0 383.49,115 383.49,306.63 0,160.28 -117.47,243.93 -290.24,313.55 l -207.28,83.65 c -210.72,83.65 -355.84,215.95 -355.84,421.52 0,282.3 252.2,446.04 552.82,446.04 138.08,0 272.89,-24.51 418.01,-94.12 17.26,-6.93 27.56,-17.5 27.56,-27.89 0,-3.46 -3.34,-7.01 -3.34,-10.48 l -34.61,-97.5 c -6.87,-20.96 -17.26,-27.88 -27.65,-27.88 -6.87,0 -13.82,3.46 -24.13,6.92 -89.81,45.38 -245.32,83.65 -355.84,83.65 -203.85,0 -324.75,-108.07 -324.75,-250.85 0,-146.34 82.86,-209.13 241.8,-275.28 l 245.24,-104.52 c 196.99,-83.55 355.93,-222.88 355.93,-438.84 0,-292.77 -235.03,-508.73 -611.56,-508.73" style="fill:#ffffff;fill-opacity:1;fill-rule:nonzero;stroke:none" transform="matrix(0.13333333,0,0,-0.13333333,0,658.32)"/>
      <path id="path59" d="m 4927.49,2151.62 c -172.68,0 -348.97,59.23 -438.79,104.43 -20.69,10.48 -31.08,17.4 -31.08,31.34 0,3.56 0,10.48 3.43,17.41 l 41.39,108.16 c 7.04,17.31 10.48,20.87 20.78,20.87 3.43,0 10.39,0 17.26,-3.56 117.56,-59.14 279.93,-104.52 397.4,-104.52 231.51,0 383.49,115 383.49,306.63 0,160.28 -117.47,243.93 -290.24,313.55 l -207.28,83.65 c -210.72,83.65 -355.84,215.95 -355.84,421.52 0,282.3 252.2,446.04 552.82,446.04 138.08,0 272.89,-24.51 418.01,-94.12 17.26,-6.93 27.56,-17.5 27.56,-27.89 0,-3.46 -3.34,-7.01 -3.34,-10.48 l -34.61,-97.5 c -6.87,-20.96 -17.26,-27.88 -27.65,-27.88 -6.87,0 -13.82,3.46 -24.13,6.92 -89.81,45.38 -245.32,83.65 -355.84,83.65 -203.85,0 -324.75,-108.07 -324.75,-250.85 0,-146.34 82.86,-209.13 241.8,-275.28 l 245.24,-104.52 c 196.99,-83.55 355.93,-222.88 355.93,-438.84 0,-292.77 -235.03,-508.73 -611.56,-508.73" style="fill:#ffffff;fill-opacity:1;fill-rule:nonzero;stroke:none" transform="matrix(0.13333333,0,0,-0.13333333,0,658.32)"/>
      <path id="path60" d="m 7059.29,2182.94 h -110.51 c -38.05,0 -55.3,20.78 -55.3,62.6 v 993.04 c 0,275.19 -69.13,484.31 -380.15,484.31 -172.68,0 -390.36,-101.05 -521.65,-222.97 V 2245.54 c 0,-41.82 -17.26,-62.6 -55.3,-62.6 h -110.51 c -38.05,0 -55.39,20.78 -55.39,62.6 v 2327.51 c 0,41.83 6.95,55.68 44.9,62.7 l 121,17.4 h 3.43 10.39 c 27.65,0 41.48,-20.95 41.48,-55.68 v -916.4 c 158.94,142.78 380.05,216.04 576.95,216.04 404.27,0 545.96,-247.39 545.96,-627.18 V 2245.54 c 0,-41.82 -17.26,-62.6 -55.3,-62.6" style="fill:#ffffff;fill-opacity:1;fill-rule:nonzero;stroke:none" transform="matrix(0.13333333,0,0,-0.13333333,0,658.32)"/>
      <path id="path61" d="m 7059.29,2182.94 h -110.51 c -38.05,0 -55.3,20.78 -55.3,62.6 v 993.04 c 0,275.19 -69.13,484.31 -380.15,484.31 -172.68,0 -390.36,-101.05 -521.65,-222.97 V 2245.54 c 0,-41.82 -17.26,-62.6 -55.3,-62.6 h -110.51 c -38.05,0 -55.39,20.78 -55.39,62.6 v 2327.51 c 0,41.83 6.95,55.68 44.9,62.7 l 121,17.4 h 3.43 10.39 c 27.65,0 41.48,-20.95 41.48,-55.68 v -916.4 c 158.94,142.78 380.05,216.04 576.95,216.04 404.27,0 545.96,-247.39 545.96,-627.18 V 2245.54 c 0,-41.82 -17.26,-62.6 -55.3,-62.6" style="fill:#ffffff;fill-opacity:1;fill-rule:nonzero;stroke:none" transform="matrix(0.13333333,0,0,-0.13333333,0,658.32)"/>
      <path id="path62" d="m 8503.56,3430.22 c -89.81,188.16 -276.41,292.68 -459.48,292.68 -297.2,0 -514.87,-268.26 -514.87,-714.21 0,-442.48 217.67,-669.01 463,-669.01 252.2,0 442.32,209.03 511.35,421.62 z m 328.19,-1247.27 h -131.2 c -134.82,0 -193.55,114.9 -193.55,250.86 v 45.38 c -69.04,-170.77 -304.07,-327.59 -532.14,-327.59 -469.87,0 -673.72,411.14 -673.72,843.15 0,571.42 328.28,902.38 729.12,902.38 165.81,0 359.27,-69.71 473.3,-219.52 l 3.44,128.94 c 0,41.73 24.21,55.68 62.17,55.68 h 103.64 c 38.04,0 51.87,-20.87 51.87,-62.7 V 2576.69 c 0,-97.5 0,-163.75 13.82,-191.72 13.83,-31.26 37.95,-41.83 72.56,-41.83 h 24.13 c 27.74,0 38.04,-6.83 38.04,-38.27 v -87.11 c 0,-27.89 -10.3,-34.81 -41.48,-34.81" style="fill:#ffffff;fill-opacity:1;fill-rule:nonzero;stroke:none" transform="matrix(0.13333333,0,0,-0.13333333,0,658.32)"/>
      <path id="path63" d="m 8503.56,3430.22 c -89.81,188.16 -276.41,292.68 -459.48,292.68 -297.2,0 -514.87,-268.26 -514.87,-714.21 0,-442.48 217.67,-669.01 463,-669.01 252.2,0 442.32,209.03 511.35,421.62 z m 328.19,-1247.27 h -131.2 c -134.82,0 -193.55,114.9 -193.55,250.86 v 45.38 c -69.04,-170.77 -304.07,-327.59 -532.14,-327.59 -469.87,0 -673.72,411.14 -673.72,843.15 0,571.42 328.28,902.38 729.12,902.38 165.81,0 359.27,-69.71 473.3,-219.52 l 3.44,128.94 c 0,41.73 24.21,55.68 62.17,55.68 h 103.64 c 38.04,0 51.87,-20.87 51.87,-62.7 V 2576.69 c 0,-97.5 0,-163.75 13.82,-191.72 13.83,-31.26 37.95,-41.83 72.56,-41.83 h 24.13 c 27.74,0 38.04,-6.83 38.04,-38.27 v -87.11 c 0,-27.89 -10.3,-34.81 -41.48,-34.81" style="fill:#ffffff;fill-opacity:1;fill-rule:nonzero;stroke:none" transform="matrix(0.13333333,0,0,-0.13333333,0,658.32)"/>
      <path id="path64" d="m 11084.5,3809.99 -466.4,-1578.32 c -10.3,-38.27 -38.1,-48.75 -69.2,-48.75 h -141.5 c -41.5,0 -62.2,17.41 -69.2,48.75 l -355.81,1275.15 -352.5,-1275.15 c -10.3,-38.27 -37.95,-48.75 -69.03,-48.75 H 9422.6 c -41.47,0 -62.16,17.41 -72.56,48.75 l -466.35,1574.85 c 0,6.93 -3.43,13.94 -3.43,17.41 0,24.42 17.17,38.36 48.25,38.36 h 120.9 c 48.44,0 65.7,-10.48 72.56,-38.36 l 380.06,-1376.3 h 6.96 l 383.49,1372.83 c 10.39,31.35 24.21,41.83 55.39,41.83 h 110.43 c 20.8,0 34.6,-7.02 41.5,-34.9 l 397.3,-1379.76 h 7 l 366.3,1365.82 c 10.3,34.9 34.4,48.84 72.4,48.84 h 103.7 c 24.1,0 41.4,-10.48 41.4,-31.44 0,-6.92 0,-13.94 -3.4,-20.86" style="fill:#ffffff;fill-opacity:1;fill-rule:nonzero;stroke:none" transform="matrix(0.13333333,0,0,-0.13333333,0,658.32)"/>
      <path id="path65" d="m 11084.5,3809.99 -466.4,-1578.32 c -10.3,-38.27 -38.1,-48.75 -69.2,-48.75 h -141.5 c -41.5,0 -62.2,17.41 -69.2,48.75 l -355.81,1275.15 -352.5,-1275.15 c -10.3,-38.27 -37.95,-48.75 -69.03,-48.75 H 9422.6 c -41.47,0 -62.16,17.41 -72.56,48.75 l -466.35,1574.85 c 0,6.93 -3.43,13.94 -3.43,17.41 0,24.42 17.17,38.36 48.25,38.36 h 120.9 c 48.44,0 65.7,-10.48 72.56,-38.36 l 380.06,-1376.3 h 6.96 l 383.49,1372.83 c 10.39,31.35 24.21,41.83 55.39,41.83 h 110.43 c 20.8,0 34.6,-7.02 41.5,-34.9 l 397.3,-1379.76 h 7 l 366.3,1365.82 c 10.3,34.9 34.4,48.84 72.4,48.84 h 103.7 c 24.1,0 41.4,-10.48 41.4,-31.44 0,-6.92 0,-13.94 -3.4,-20.86" style="fill:#ffffff;fill-opacity:1;fill-rule:nonzero;stroke:none" transform="matrix(0.13333333,0,0,-0.13333333,0,658.32)"/>
      <path id="path66" d="m 12376.8,3437.19 c -79.5,160.28 -273,285.66 -463,285.66 -345.5,0 -532.2,-282.2 -532.2,-679.31 0,-320.56 117.6,-679.49 497.7,-679.49 183.1,0 400.7,104.61 497.5,250.95 z m -7,-1853.59 c -117.4,-100.97 -293.6,-167.21 -525.1,-167.21 -152,0 -345.5,55.77 -480.2,121.92 -27.8,14.03 -34.6,27.88 -34.6,41.73 0,7.02 0,14.13 3.4,21.05 l 34.6,90.58 c 6.9,17.4 17.3,31.25 34.5,31.25 7,0 20.8,0 31.1,-6.92 131.3,-59.23 272.9,-111.54 411.2,-111.54 165.8,0 297.2,31.53 390.3,129.03 93.4,97.59 141.8,257.88 141.8,501.81 v 170.49 c -117.5,-142.79 -335.2,-222.89 -518.2,-222.89 -497.6,0 -704.9,393.74 -704.9,846.7 0,466.82 259,867.48 749.8,867.48 176.2,0 362.7,-69.62 473.3,-212.5 l 3.4,121.92 c 0,45.29 24.1,55.77 62.2,55.77 h 103.6 c 38.1,0 51.9,-20.96 51.9,-62.69 V 2618.46 2259.63 c 0,-306.72 -65.6,-533.16 -228.1,-676.03" style="fill:#ffffff;fill-opacity:1;fill-rule:nonzero;stroke:none" transform="matrix(0.13333333,0,0,-0.13333333,0,658.32)"/>
      <path id="path67" d="m 12376.8,3437.19 c -79.5,160.28 -273,285.66 -463,285.66 -345.5,0 -532.2,-282.2 -532.2,-679.31 0,-320.56 117.6,-679.49 497.7,-679.49 183.1,0 400.7,104.61 497.5,250.95 z m -7,-1853.59 c -117.4,-100.97 -293.6,-167.21 -525.1,-167.21 -152,0 -345.5,55.77 -480.2,121.92 -27.8,14.03 -34.6,27.88 -34.6,41.73 0,7.02 0,14.13 3.4,21.05 l 34.6,90.58 c 6.9,17.4 17.3,31.25 34.5,31.25 7,0 20.8,0 31.1,-6.92 131.3,-59.23 272.9,-111.54 411.2,-111.54 165.8,0 297.2,31.53 390.3,129.03 93.4,97.59 141.8,257.88 141.8,501.81 v 170.49 c -117.5,-142.79 -335.2,-222.89 -518.2,-222.89 -497.6,0 -704.9,393.74 -704.9,846.7 0,466.82 259,867.48 749.8,867.48 176.2,0 362.7,-69.62 473.3,-212.5 l 3.4,121.92 c 0,45.29 24.1,55.77 62.2,55.77 h 103.6 c 38.1,0 51.9,-20.96 51.9,-62.69 V 2618.46 2259.63 c 0,-306.72 -65.6,-533.16 -228.1,-676.03" style="fill:#ffffff;fill-opacity:1;fill-rule:nonzero;stroke:none" transform="matrix(0.13333333,0,0,-0.13333333,0,658.32)"/>
      <path id="path68" d="m 13050.5,2182.94 h -110.6 c -37.9,0 -55.3,20.78 -55.3,62.6 v 1553.99 c 0,41.82 17.4,62.69 55.3,62.69 h 110.6 c 38.1,0 55.2,-20.87 55.2,-62.69 V 2245.54 c 0,-41.82 -17.1,-62.6 -55.2,-62.6 m -55.3,1933.69 c -79.5,0 -141.7,55.67 -141.7,135.86 0,80.09 62.2,135.95 141.7,135.95 79.5,0 145.1,-55.86 145.1,-135.95 0,-80.19 -65.6,-135.86 -145.1,-135.86" style="fill:#ffffff;fill-opacity:1;fill-rule:nonzero;stroke:none" transform="matrix(0.13333333,0,0,-0.13333333,0,658.32)"/>
      <path id="path69" d="m 13050.5,2182.94 h -110.6 c -37.9,0 -55.3,20.78 -55.3,62.6 v 1553.99 c 0,41.82 17.4,62.69 55.3,62.69 h 110.6 c 38.1,0 55.2,-20.87 55.2,-62.69 V 2245.54 c 0,-41.82 -17.1,-62.6 -55.2,-62.6 z m -55.3,1933.69 c -79.5,0 -141.7,55.67 -141.7,135.86 0,80.09 62.2,135.95 141.7,135.95 79.5,0 145.1,-55.86 145.1,-135.95 0,-80.19 -65.6,-135.86 -145.1,-135.86" style="fill:#ffffff;fill-opacity:1;fill-rule:nonzero;stroke:none" transform="matrix(0.13333333,0,0,-0.13333333,0,658.32)"/>
      <path id="path70" d="m 14111.2,3719.4 c -176.3,0 -373.2,-107.98 -487.2,-240.47 v -884.88 c 100.2,-156.73 269.5,-268.26 456.1,-268.26 373.2,0 535.6,313.64 535.6,686.42 0,424.9 -155.6,707.19 -504.5,707.19 m -20.7,-1567.74 c -190.1,0 -373.2,100.96 -476.8,226.43 l -3.5,-132.49 c 0,-48.84 -17.2,-62.6 -65.6,-62.6 h -86.4 c -38.1,0 -55.3,10.39 -55.3,52.21 v 2337.82 c 0,41.73 6.8,55.76 44.9,62.69 l 121,17.4 h 3.4 10.3 c 27.7,0 41.5,-20.87 41.5,-55.76 v -919.78 c 103.6,111.44 293.8,219.6 521.8,219.6 490.6,0 698,-400.85 698,-867.57 0,-473.83 -238.6,-877.95 -753.3,-877.95" style="fill:#ffffff;fill-opacity:1;fill-rule:nonzero;stroke:none" transform="matrix(0.13333333,0,0,-0.13333333,0,658.32)"/>
      <path id="path71" d="m 14111.2,3719.4 c -176.3,0 -373.2,-107.98 -487.2,-240.47 v -884.88 c 100.2,-156.73 269.5,-268.26 456.1,-268.26 373.2,0 535.6,313.64 535.6,686.42 0,424.9 -155.6,707.19 -504.5,707.19 z m -20.7,-1567.74 c -190.1,0 -373.2,100.96 -476.8,226.43 l -3.5,-132.49 c 0,-48.84 -17.2,-62.6 -65.6,-62.6 h -86.4 c -38.1,0 -55.3,10.39 -55.3,52.21 v 2337.82 c 0,41.73 6.8,55.76 44.9,62.69 l 121,17.4 h 3.4 10.3 c 27.7,0 41.5,-20.87 41.5,-55.76 v -919.78 c 103.6,111.44 293.8,219.6 521.8,219.6 490.6,0 698,-400.85 698,-867.57 0,-473.83 -238.6,-877.95 -753.3,-877.95" style="fill:#ffffff;fill-opacity:1;fill-rule:nonzero;stroke:none" transform="matrix(0.13333333,0,0,-0.13333333,0,658.32)"/>
      <path id="path72" d="m 15769.7,3719.4 c -176.3,0 -373.2,-107.98 -487.2,-240.47 v -884.88 c 100.2,-156.73 269.5,-268.26 456.1,-268.26 373.2,0 535.6,313.64 535.6,686.42 0,424.9 -155.6,707.19 -504.5,707.19 M 15749,2151.66 c -190.1,0 -373.2,100.96 -476.8,226.43 l -3.5,-132.49 c 0,-48.84 -17.2,-62.6 -65.7,-62.6 h -86.3 c -38.1,0 -55.3,10.39 -55.3,52.21 v 2337.82 c 0,41.73 6.8,55.76 44.9,62.69 l 121,17.4 h 3.4 10.3 c 27.7,0 41.5,-20.87 41.5,-55.76 v -919.78 c 103.6,111.44 293.7,219.6 521.8,219.6 490.6,0 697.9,-400.85 697.9,-867.57 0,-473.83 -238.5,-877.95 -753.2,-877.95" style="fill:#ffffff;fill-opacity:1;fill-rule:nonzero;stroke:none" transform="matrix(0.13333333,0,0,-0.13333333,0,658.32)"/>
      <path id="path73" d="m 15769.7,3719.4 c -176.3,0 -373.2,-107.98 -487.2,-240.47 v -884.88 c 100.2,-156.73 269.5,-268.26 456.1,-268.26 373.2,0 535.6,313.64 535.6,686.42 0,424.9 -155.6,707.19 -504.5,707.19 z M 15749,2151.66 c -190.1,0 -373.2,100.96 -476.8,226.43 l -3.5,-132.49 c 0,-48.84 -17.2,-62.6 -65.7,-62.6 h -86.3 c -38.1,0 -55.3,10.39 -55.3,52.21 v 2337.82 c 0,41.73 6.8,55.76 44.9,62.69 l 121,17.4 h 3.4 10.3 c 27.7,0 41.5,-20.87 41.5,-55.76 v -919.78 c 103.6,111.44 293.7,219.6 521.8,219.6 490.6,0 697.9,-400.85 697.9,-867.57 0,-473.83 -238.5,-877.95 -753.2,-877.95" style="fill:#ffffff;fill-opacity:1;fill-rule:nonzero;stroke:none" transform="matrix(0.13333333,0,0,-0.13333333,0,658.32)"/>
      <path id="path74" d="m 17124.1,2151.62 c -172.7,0 -348.9,59.23 -438.8,104.43 -20.7,10.48 -31.1,17.4 -31.1,31.34 0,3.56 0,10.48 3.4,17.41 l 41.5,108.16 c 7,17.31 10.4,20.87 20.7,20.87 3.4,0 10.5,0 17.3,-3.56 117.5,-59.14 279.9,-104.52 397.4,-104.52 231.5,0 383.4,115 383.4,306.63 0,160.28 -117.4,243.93 -290.1,313.55 l -207.4,83.65 c -210.7,83.65 -355.8,215.95 -355.8,421.52 0,282.3 252.2,446.04 552.8,446.04 138.2,0 273,-24.51 418,-94.12 17.4,-6.93 27.7,-17.5 27.7,-27.89 0,-3.46 -3.5,-7.01 -3.5,-10.48 l -34.5,-97.5 c -6.9,-20.96 -17.3,-27.88 -27.7,-27.88 -6.8,0 -13.8,3.46 -24.2,6.92 -89.8,45.38 -245.2,83.65 -355.8,83.65 -203.8,0 -324.7,-108.07 -324.7,-250.85 0,-146.34 82.9,-209.13 241.8,-275.28 l 245.2,-104.52 c 197,-83.55 355.9,-222.88 355.9,-438.84 0,-292.77 -235,-508.73 -611.5,-508.73" style="fill:#ffffff;fill-opacity:1;fill-rule:nonzero;stroke:none" transform="matrix(0.13333333,0,0,-0.13333333,0,658.32)"/>
      <path id="path75" d="m 3951.54,3848.18 c 270.09,434.55 145.57,787.83 -276.05,798.49 l 0.27,0.46 h -19.7 -1159.23 -277.77 -772.31 L 418.176,2979.51 C 147.996,2544.87 272.605,2191.68 694.227,2181.02 l -0.27,-0.46 h 19.699 1159.324 277.77 772.22 l 1028.57,1667.62" style="fill:#6fc72d;fill-opacity:1;fill-rule:nonzero;stroke:none" transform="matrix(0.13333333,0,0,-0.13333333,0,658.32)"/>
      <path id="path76" d="m 17124.1,2151.62 c -172.7,0 -348.9,59.23 -438.8,104.43 -20.7,10.48 -31.1,17.4 -31.1,31.34 0,3.56 0,10.48 3.4,17.41 l 41.5,108.16 c 7,17.31 10.4,20.87 20.7,20.87 3.4,0 10.5,0 17.3,-3.56 117.5,-59.14 279.9,-104.52 397.4,-104.52 231.5,0 383.4,115 383.4,306.63 0,160.28 -117.4,243.93 -290.1,313.55 l -207.4,83.65 c -210.7,83.65 -355.8,215.95 -355.8,421.52 0,282.3 252.2,446.04 552.8,446.04 138.2,0 273,-24.51 418,-94.12 17.4,-6.93 27.7,-17.5 27.7,-27.89 0,-3.46 -3.5,-7.01 -3.5,-10.48 l -34.5,-97.5 c -6.9,-20.96 -17.3,-27.88 -27.7,-27.88 -6.8,0 -13.8,3.46 -24.2,6.92 -89.8,45.38 -245.2,83.65 -355.8,83.65 -203.8,0 -324.7,-108.07 -324.7,-250.85 0,-146.34 82.9,-209.13 241.8,-275.28 l 245.2,-104.52 c 197,-83.55 355.9,-222.88 355.9,-438.84 0,-292.77 -235,-508.73 -611.5,-508.73" style="fill:#ffffff;fill-opacity:1;fill-rule:nonzero;stroke:none" transform="matrix(0.13333333,0,0,-0.13333333,0,658.32)"/>
      <path id="path77" d="m 3951.54,3848.18 c 270.09,434.55 145.57,787.83 -276.05,798.49 l 0.27,0.46 h -19.7 -1159.23 -277.77 -772.31 L 418.176,2979.51 C 147.996,2544.87 272.605,2191.68 694.227,2181.02 l -0.27,-0.46 h 19.699 1159.324 277.77 772.22 z" style="fill:none;stroke:#80cc2a;stroke-width:8.3;stroke-linecap:butt;stroke-linejoin:miter;stroke-miterlimit:4;stroke-dasharray:none;stroke-opacity:1" transform="matrix(0.13333333,0,0,-0.13333333,0,658.32)"/>
      <path id="path78" d="m 2314.97,2326.07 867.82,602.03 -867.82,601.95 z" style="fill:#ffffff;fill-opacity:1;fill-rule:nonzero;stroke:none" transform="matrix(0.13333333,0,0,-0.13333333,0,658.32)"/>
      <path id="path79" d="m 2322.77,2341.14 846.13,586.91 -846.13,586.91 z m -15.63,1203.8 889.32,-616.8 -877.04,-608.6 -4.42,6.56 4.42,-6.56 -12.28,-8.38 v 1233.78" style="fill:#ffffff;fill-opacity:1;fill-rule:nonzero;stroke:none" transform="matrix(0.13333333,0,0,-0.13333333,0,658.32)"/>
    </g>
  </g>
</svg>