<?xml version="1.0" encoding="UTF-8" standalone="no"?>

<svg
   version="1.1"
   id="svg1"
   width="2400"
   height="658.32001"
   viewBox="0 0 2400 658.32001"
   sodipodi:docname="sg-logo-transparent-bg-v1.1.eps"
   xmlns:inkscape="http://www.inkscape.org/namespaces/inkscape"
   xmlns:sodipodi="http://sodipodi.sourceforge.net/DTD/sodipodi-0.dtd"
   xmlns="http://www.w3.org/2000/svg"
   xmlns:svg="http://www.w3.org/2000/svg">
  <defs
     id="defs1" />
  <sodipodi:namedview
     id="namedview1"
     pagecolor="#ffffff"
     bordercolor="#000000"
     borderopacity="0.25"
     inkscape:showpageshadow="2"
     inkscape:pageopacity="0.0"
     inkscape:pagecheckerboard="0"
     inkscape:deskcolor="#d1d1d1">
    <inkscape:page
       x="0"
       y="0"
       inkscape:label="1"
       id="page1"
       width="2400"
       height="658.32001"
       margin="0"
       bleed="0" />
  </sodipodi:namedview>
  <g
     id="g1"
     inkscape:groupmode="layer"
     inkscape:label="1">
    <g
       id="group-R5">
<path
         id="path60"
         d="m 7059.29,2182.94 h -110.51 c -38.05,0 -55.3,20.78 -55.3,62.6 v 993.04 c 0,275.19 -69.13,484.31 -380.15,484.31 -172.68,0 -390.36,-101.05 -521.65,-222.97 V 2245.54 c 0,-41.82 -17.26,-62.6 -55.3,-62.6 h -110.51 c -38.05,0 -55.39,20.78 -55.39,62.6 v 2327.51 c 0,41.83 6.95,55.68 44.9,62.7 l 121,17.4 h 3.43 10.39 c 27.65,0 41.48,-20.95 41.48,-55.68 v -916.4 c 158.94,142.78 380.05,216.04 576.95,216.04 404.27,0 545.96,-247.39 545.96,-627.18 V 2245.54 c 0,-41.82 -17.26,-62.6 -55.3,-62.6"
         style="fill:#3d3e3f;fill-opacity:1;fill-rule:nonzero;stroke:none"
         transform="matrix(0.13333333,0,0,-0.13333333,0,658.32)" />
      <path
         id="path61"
         d="m 7059.29,2182.94 h -110.51 c -38.05,0 -55.3,20.78 -55.3,62.6 v 993.04 c 0,275.19 -69.13,484.31 -380.15,484.31 -172.68,0 -390.36,-101.05 -521.65,-222.97 V 2245.54 c 0,-41.82 -17.26,-62.6 -55.3,-62.6 h -110.51 c -38.05,0 -55.39,20.78 -55.39,62.6 v 2327.51 c 0,41.83 6.95,55.68 44.9,62.7 l 121,17.4 h 3.43 10.39 c 27.65,0 41.48,-20.95 41.48,-55.68 v -916.4 c 158.94,142.78 380.05,216.04 576.95,216.04 404.27,0 545.96,-247.39 545.96,-627.18 V 2245.54 c 0,-41.82 -17.26,-62.6 -55.3,-62.6 z"
         style="fill:none;stroke:#3d3e3f;stroke-width:6.22;stroke-linecap:butt;stroke-linejoin:miter;stroke-miterlimit:4;stroke-dasharray:none;stroke-opacity:1"
         transform="matrix(0.13333333,0,0,-0.13333333,0,658.32)" />
      <path
         id="path62"
         d="m 8503.56,3430.22 c -89.81,188.16 -276.41,292.68 -459.48,292.68 -297.2,0 -514.87,-268.26 -514.87,-714.21 0,-442.48 217.67,-669.01 463,-669.01 252.2,0 442.32,209.03 511.35,421.62 z m 328.19,-1247.27 h -131.2 c -134.82,0 -193.55,114.9 -193.55,250.86 v 45.38 c -69.04,-170.77 -304.07,-327.59 -532.14,-327.59 -469.87,0 -673.72,411.14 -673.72,843.15 0,571.42 328.28,902.38 729.12,902.38 165.81,0 359.27,-69.71 473.3,-219.52 l 3.44,128.94 c 0,41.73 24.21,55.68 62.17,55.68 h 103.64 c 38.04,0 51.87,-20.87 51.87,-62.7 V 2576.69 c 0,-97.5 0,-163.75 13.82,-191.72 13.83,-31.26 37.95,-41.83 72.56,-41.83 h 24.13 c 27.74,0 38.04,-6.83 38.04,-38.27 v -87.11 c 0,-27.89 -10.3,-34.81 -41.48,-34.81"
         style="fill:#3d3e3f;fill-opacity:1;fill-rule:nonzero;stroke:none"
         transform="matrix(0.13333333,0,0,-0.13333333,0,658.32)" />
      <path
         id="path63"
         d="m 8503.56,3430.22 c -89.81,188.16 -276.41,292.68 -459.48,292.68 -297.2,0 -514.87,-268.26 -514.87,-714.21 0,-442.48 217.67,-669.01 463,-669.01 252.2,0 442.32,209.03 511.35,421.62 z m 328.19,-1247.27 h -131.2 c -134.82,0 -193.55,114.9 -193.55,250.86 v 45.38 c -69.04,-170.77 -304.07,-327.59 -532.14,-327.59 -469.87,0 -673.72,411.14 -673.72,843.15 0,571.42 328.28,902.38 729.12,902.38 165.81,0 359.27,-69.71 473.3,-219.52 l 3.44,128.94 c 0,41.73 24.21,55.68 62.17,55.68 h 103.64 c 38.04,0 51.87,-20.87 51.87,-62.7 V 2576.69 c 0,-97.5 0,-163.75 13.82,-191.72 13.83,-31.26 37.95,-41.83 72.56,-41.83 h 24.13 c 27.74,0 38.04,-6.83 38.04,-38.27 v -87.11 c 0,-27.89 -10.3,-34.81 -41.48,-34.81 z"
         style="fill:none;stroke:#3d3e3f;stroke-width:6.22;stroke-linecap:butt;stroke-linejoin:miter;stroke-miterlimit:4;stroke-dasharray:none;stroke-opacity:1"
         transform="matrix(0.13333333,0,0,-0.13333333,0,658.32)" />
      <path
         id="path64"
         d="m 11084.5,3809.99 -466.4,-1578.32 c -10.3,-38.27 -38.1,-48.75 -69.2,-48.75 h -141.5 c -41.5,0 -62.2,17.41 -69.2,48.75 l -355.81,1275.15 -352.5,-1275.15 c -10.3,-38.27 -37.95,-48.75 -69.03,-48.75 H 9422.6 c -41.47,0 -62.16,17.41 -72.56,48.75 l -466.35,1574.85 c 0,6.93 -3.43,13.94 -3.43,17.41 0,24.42 17.17,38.36 48.25,38.36 h 120.9 c 48.44,0 65.7,-10.48 72.56,-38.36 l 380.06,-1376.3 h 6.96 l 383.49,1372.83 c 10.39,31.35 24.21,41.83 55.39,41.83 h 110.43 c 20.8,0 34.6,-7.02 41.5,-34.9 l 397.3,-1379.76 h 7 l 366.3,1365.82 c 10.3,34.9 34.4,48.84 72.4,48.84 h 103.7 c 24.1,0 41.4,-10.48 41.4,-31.44 0,-6.92 0,-13.94 -3.4,-20.86"
         style="fill:#3d3e3f;fill-opacity:1;fill-rule:nonzero;stroke:none"
         transform="matrix(0.13333333,0,0,-0.13333333,0,658.32)" />
      <path
         id="path65"
         d="m 11084.5,3809.99 -466.4,-1578.32 c -10.3,-38.27 -38.1,-48.75 -69.2,-48.75 h -141.5 c -41.5,0 -62.2,17.41 -69.2,48.75 l -355.81,1275.15 -352.5,-1275.15 c -10.3,-38.27 -37.95,-48.75 -69.03,-48.75 H 9422.6 c -41.47,0 -62.16,17.41 -72.56,48.75 l -466.35,1574.85 c 0,6.93 -3.43,13.94 -3.43,17.41 0,24.42 17.17,38.36 48.25,38.36 h 120.9 c 48.44,0 65.7,-10.48 72.56,-38.36 l 380.06,-1376.3 h 6.96 l 383.49,1372.83 c 10.39,31.35 24.21,41.83 55.39,41.83 h 110.43 c 20.8,0 34.6,-7.02 41.5,-34.9 l 397.3,-1379.76 h 7 l 366.3,1365.82 c 10.3,34.9 34.4,48.84 72.4,48.84 h 103.7 c 24.1,0 41.4,-10.48 41.4,-31.44 0,-6.92 0,-13.94 -3.4,-20.86 z"
         style="fill:none;stroke:#3d3e3f;stroke-width:6.22;stroke-linecap:butt;stroke-linejoin:miter;stroke-miterlimit:4;stroke-dasharray:none;stroke-opacity:1"
         transform="matrix(0.13333333,0,0,-0.13333333,0,658.32)" />
      <path
         id="path66"
         d="m 12376.8,3437.19 c -79.5,160.28 -273,285.66 -463,285.66 -345.5,0 -532.2,-282.2 -532.2,-679.31 0,-320.56 117.6,-679.49 497.7,-679.49 183.1,0 400.7,104.61 497.5,250.95 z m -7,-1853.59 c -117.4,-100.97 -293.6,-167.21 -525.1,-167.21 -152,0 -345.5,55.77 -480.2,121.92 -27.8,14.03 -34.6,27.88 -34.6,41.73 0,7.02 0,14.13 3.4,21.05 l 34.6,90.58 c 6.9,17.4 17.3,31.25 34.5,31.25 7,0 20.8,0 31.1,-6.92 131.3,-59.23 272.9,-111.54 411.2,-111.54 165.8,0 297.2,31.53 390.3,129.03 93.4,97.59 141.8,257.88 141.8,501.81 v 170.49 c -117.5,-142.79 -335.2,-222.89 -518.2,-222.89 -497.6,0 -704.9,393.74 -704.9,846.7 0,466.82 259,867.48 749.8,867.48 176.2,0 362.7,-69.62 473.3,-212.5 l 3.4,121.92 c 0,45.29 24.1,55.77 62.2,55.77 h 103.6 c 38.1,0 51.9,-20.96 51.9,-62.69 V 2618.46 2259.63 c 0,-306.72 -65.6,-533.16 -228.1,-676.03"
         style="fill:#3d3e3f;fill-opacity:1;fill-rule:nonzero;stroke:none"
         transform="matrix(0.13333333,0,0,-0.13333333,0,658.32)" />
      <path
         id="path67"
         d="m 12376.8,3437.19 c -79.5,160.28 -273,285.66 -463,285.66 -345.5,0 -532.2,-282.2 -532.2,-679.31 0,-320.56 117.6,-679.49 497.7,-679.49 183.1,0 400.7,104.61 497.5,250.95 z m -7,-1853.59 c -117.4,-100.97 -293.6,-167.21 -525.1,-167.21 -152,0 -345.5,55.77 -480.2,121.92 -27.8,14.03 -34.6,27.88 -34.6,41.73 0,7.02 0,14.13 3.4,21.05 l 34.6,90.58 c 6.9,17.4 17.3,31.25 34.5,31.25 7,0 20.8,0 31.1,-6.92 131.3,-59.23 272.9,-111.54 411.2,-111.54 165.8,0 297.2,31.53 390.3,129.03 93.4,97.59 141.8,257.88 141.8,501.81 v 170.49 c -117.5,-142.79 -335.2,-222.89 -518.2,-222.89 -497.6,0 -704.9,393.74 -704.9,846.7 0,466.82 259,867.48 749.8,867.48 176.2,0 362.7,-69.62 473.3,-212.5 l 3.4,121.92 c 0,45.29 24.1,55.77 62.2,55.77 h 103.6 c 38.1,0 51.9,-20.96 51.9,-62.69 V 2618.46 2259.63 c 0,-306.72 -65.6,-533.16 -228.1,-676.03 z"
         style="fill:none;stroke:#3d3e3f;stroke-width:6.22;stroke-linecap:butt;stroke-linejoin:miter;stroke-miterlimit:4;stroke-dasharray:none;stroke-opacity:1"
         transform="matrix(0.13333333,0,0,-0.13333333,0,658.32)" />
      <path
         id="path68"
         d="m 13050.5,2182.94 h -110.6 c -37.9,0 -55.3,20.78 -55.3,62.6 v 1553.99 c 0,41.82 17.4,62.69 55.3,62.69 h 110.6 c 38.1,0 55.2,-20.87 55.2,-62.69 V 2245.54 c 0,-41.82 -17.1,-62.6 -55.2,-62.6 m -55.3,1933.69 c -79.5,0 -141.7,55.67 -141.7,135.86 0,80.09 62.2,135.95 141.7,135.95 79.5,0 145.1,-55.86 145.1,-135.95 0,-80.19 -65.6,-135.86 -145.1,-135.86"
         style="fill:#3d3e3f;fill-opacity:1;fill-rule:nonzero;stroke:none"
         transform="matrix(0.13333333,0,0,-0.13333333,0,658.32)" />
      <path
         id="path69"
         d="m 13050.5,2182.94 h -110.6 c -37.9,0 -55.3,20.78 -55.3,62.6 v 1553.99 c 0,41.82 17.4,62.69 55.3,62.69 h 110.6 c 38.1,0 55.2,-20.87 55.2,-62.69 V 2245.54 c 0,-41.82 -17.1,-62.6 -55.2,-62.6 z m -55.3,1933.69 c -79.5,0 -141.7,55.67 -141.7,135.86 0,80.09 62.2,135.95 141.7,135.95 79.5,0 145.1,-55.86 145.1,-135.95 0,-80.19 -65.6,-135.86 -145.1,-135.86 z"
         style="fill:none;stroke:#3d3e3f;stroke-width:6.22;stroke-linecap:butt;stroke-linejoin:miter;stroke-miterlimit:4;stroke-dasharray:none;stroke-opacity:1"
         transform="matrix(0.13333333,0,0,-0.13333333,0,658.32)" />
      <path
         id="path70"
         d="m 14111.2,3719.4 c -176.3,0 -373.2,-107.98 -487.2,-240.47 v -884.88 c 100.2,-156.73 269.5,-268.26 456.1,-268.26 373.2,0 535.6,313.64 535.6,686.42 0,424.9 -155.6,707.19 -504.5,707.19 m -20.7,-1567.74 c -190.1,0 -373.2,100.96 -476.8,226.43 l -3.5,-132.49 c 0,-48.84 -17.2,-62.6 -65.6,-62.6 h -86.4 c -38.1,0 -55.3,10.39 -55.3,52.21 v 2337.82 c 0,41.73 6.8,55.76 44.9,62.69 l 121,17.4 h 3.4 10.3 c 27.7,0 41.5,-20.87 41.5,-55.76 v -919.78 c 103.6,111.44 293.8,219.6 521.8,219.6 490.6,0 698,-400.85 698,-867.57 0,-473.83 -238.6,-877.95 -753.3,-877.95"
         style="fill:#3d3e3f;fill-opacity:1;fill-rule:nonzero;stroke:none"
         transform="matrix(0.13333333,0,0,-0.13333333,0,658.32)" />
      <path
         id="path71"
         d="m 14111.2,3719.4 c -176.3,0 -373.2,-107.98 -487.2,-240.47 v -884.88 c 100.2,-156.73 269.5,-268.26 456.1,-268.26 373.2,0 535.6,313.64 535.6,686.42 0,424.9 -155.6,707.19 -504.5,707.19 z m -20.7,-1567.74 c -190.1,0 -373.2,100.96 -476.8,226.43 l -3.5,-132.49 c 0,-48.84 -17.2,-62.6 -65.6,-62.6 h -86.4 c -38.1,0 -55.3,10.39 -55.3,52.21 v 2337.82 c 0,41.73 6.8,55.76 44.9,62.69 l 121,17.4 h 3.4 10.3 c 27.7,0 41.5,-20.87 41.5,-55.76 v -919.78 c 103.6,111.44 293.8,219.6 521.8,219.6 490.6,0 698,-400.85 698,-867.57 0,-473.83 -238.6,-877.95 -753.3,-877.95 z"
         style="fill:none;stroke:#3d3e3f;stroke-width:6.22;stroke-linecap:butt;stroke-linejoin:miter;stroke-miterlimit:4;stroke-dasharray:none;stroke-opacity:1"
         transform="matrix(0.13333333,0,0,-0.13333333,0,658.32)" />
      <path
         id="path72"
         d="m 15769.7,3719.4 c -176.3,0 -373.2,-107.98 -487.2,-240.47 v -884.88 c 100.2,-156.73 269.5,-268.26 456.1,-268.26 373.2,0 535.6,313.64 535.6,686.42 0,424.9 -155.6,707.19 -504.5,707.19 M 15749,2151.66 c -190.1,0 -373.2,100.96 -476.8,226.43 l -3.5,-132.49 c 0,-48.84 -17.2,-62.6 -65.7,-62.6 h -86.3 c -38.1,0 -55.3,10.39 -55.3,52.21 v 2337.82 c 0,41.73 6.8,55.76 44.9,62.69 l 121,17.4 h 3.4 10.3 c 27.7,0 41.5,-20.87 41.5,-55.76 v -919.78 c 103.6,111.44 293.7,219.6 521.8,219.6 490.6,0 697.9,-400.85 697.9,-867.57 0,-473.83 -238.5,-877.95 -753.2,-877.95"
         style="fill:#3d3e3f;fill-opacity:1;fill-rule:nonzero;stroke:none"
         transform="matrix(0.13333333,0,0,-0.13333333,0,658.32)" />
      <path
         id="path73"
         d="m 15769.7,3719.4 c -176.3,0 -373.2,-107.98 -487.2,-240.47 v -884.88 c 100.2,-156.73 269.5,-268.26 456.1,-268.26 373.2,0 535.6,313.64 535.6,686.42 0,424.9 -155.6,707.19 -504.5,707.19 z M 15749,2151.66 c -190.1,0 -373.2,100.96 -476.8,226.43 l -3.5,-132.49 c 0,-48.84 -17.2,-62.6 -65.7,-62.6 h -86.3 c -38.1,0 -55.3,10.39 -55.3,52.21 v 2337.82 c 0,41.73 6.8,55.76 44.9,62.69 l 121,17.4 h 3.4 10.3 c 27.7,0 41.5,-20.87 41.5,-55.76 v -919.78 c 103.6,111.44 293.7,219.6 521.8,219.6 490.6,0 697.9,-400.85 697.9,-867.57 0,-473.83 -238.5,-877.95 -753.2,-877.95 z"
         style="fill:none;stroke:#3d3e3f;stroke-width:6.22;stroke-linecap:butt;stroke-linejoin:miter;stroke-miterlimit:4;stroke-dasharray:none;stroke-opacity:1"
         transform="matrix(0.13333333,0,0,-0.13333333,0,658.32)" />
      <path
         id="path74"
         d="m 17124.1,2151.62 c -172.7,0 -348.9,59.23 -438.8,104.43 -20.7,10.48 -31.1,17.4 -31.1,31.34 0,3.56 0,10.48 3.4,17.41 l 41.5,108.16 c 7,17.31 10.4,20.87 20.7,20.87 3.4,0 10.5,0 17.3,-3.56 117.5,-59.14 279.9,-104.52 397.4,-104.52 231.5,0 383.4,115 383.4,306.63 0,160.28 -117.4,243.93 -290.1,313.55 l -207.4,83.65 c -210.7,83.65 -355.8,215.95 -355.8,421.52 0,282.3 252.2,446.04 552.8,446.04 138.2,0 273,-24.51 418,-94.12 17.4,-6.93 27.7,-17.5 27.7,-27.89 0,-3.46 -3.5,-7.01 -3.5,-10.48 l -34.5,-97.5 c -6.9,-20.96 -17.3,-27.88 -27.7,-27.88 -6.8,0 -13.8,3.46 -24.2,6.92 -89.8,45.38 -245.2,83.65 -355.8,83.65 -203.8,0 -324.7,-108.07 -324.7,-250.85 0,-146.34 82.9,-209.13 241.8,-275.28 l 245.2,-104.52 c 197,-83.55 355.9,-222.88 355.9,-438.84 0,-292.77 -235,-508.73 -611.5,-508.73"
         style="fill:#3d3e3f;fill-opacity:1;fill-rule:nonzero;stroke:none"
         transform="matrix(0.13333333,0,0,-0.13333333,0,658.32)" />
      <path
         id="path75"
         d="m 3951.54,3848.18 c 270.09,434.55 145.57,787.83 -276.05,798.49 l 0.27,0.46 h -19.7 -1159.23 -277.77 -772.31 L 418.176,2979.51 C 147.996,2544.87 272.605,2191.68 694.227,2181.02 l -0.27,-0.46 h 19.699 1159.324 277.77 772.22 l 1028.57,1667.62"
         style="fill:#6fc72d;fill-opacity:1;fill-rule:nonzero;stroke:none"
         transform="matrix(0.13333333,0,0,-0.13333333,0,658.32)" />
      <path
         id="path76"
         d="m 17124.1,2151.62 c -172.7,0 -348.9,59.23 -438.8,104.43 -20.7,10.48 -31.1,17.4 -31.1,31.34 0,3.56 0,10.48 3.4,17.41 l 41.5,108.16 c 7,17.31 10.4,20.87 20.7,20.87 3.4,0 10.5,0 17.3,-3.56 117.5,-59.14 279.9,-104.52 397.4,-104.52 231.5,0 383.4,115 383.4,306.63 0,160.28 -117.4,243.93 -290.1,313.55 l -207.4,83.65 c -210.7,83.65 -355.8,215.95 -355.8,421.52 0,282.3 252.2,446.04 552.8,446.04 138.2,0 273,-24.51 418,-94.12 17.4,-6.93 27.7,-17.5 27.7,-27.89 0,-3.46 -3.5,-7.01 -3.5,-10.48 l -34.5,-97.5 c -6.9,-20.96 -17.3,-27.88 -27.7,-27.88 -6.8,0 -13.8,3.46 -24.2,6.92 -89.8,45.38 -245.2,83.65 -355.8,83.65 -203.8,0 -324.7,-108.07 -324.7,-250.85 0,-146.34 82.9,-209.13 241.8,-275.28 l 245.2,-104.52 c 197,-83.55 355.9,-222.88 355.9,-438.84 0,-292.77 -235,-508.73 -611.5,-508.73 z"
         style="fill:none;stroke:#3d3e3f;stroke-width:6.22;stroke-linecap:butt;stroke-linejoin:miter;stroke-miterlimit:4;stroke-dasharray:none;stroke-opacity:1"
         transform="matrix(0.13333333,0,0,-0.13333333,0,658.32)" />
      <path
         id="path77"
         d="m 3951.54,3848.18 c 270.09,434.55 145.57,787.83 -276.05,798.49 l 0.27,0.46 h -19.7 -1159.23 -277.77 -772.31 L 418.176,2979.51 C 147.996,2544.87 272.605,2191.68 694.227,2181.02 l -0.27,-0.46 h 19.699 1159.324 277.77 772.22 z"
         style="fill:none;stroke:#80cc2a;stroke-width:8.3;stroke-linecap:butt;stroke-linejoin:miter;stroke-miterlimit:4;stroke-dasharray:none;stroke-opacity:1"
         transform="matrix(0.13333333,0,0,-0.13333333,0,658.32)" />
      <path
         id="path78"
         d="m 2314.97,2326.07 867.82,602.03 -867.82,601.95 z"
         style="fill:#ffffff;fill-opacity:1;fill-rule:nonzero;stroke:none"
         transform="matrix(0.13333333,0,0,-0.13333333,0,658.32)" />
      <path
         id="path79"
         d="m 2322.77,2341.14 846.13,586.91 -846.13,586.91 z m -15.63,1203.8 889.32,-616.8 -877.04,-608.6 -4.42,6.56 4.42,-6.56 -12.28,-8.38 v 1233.78"
         style="fill:#ffffff;fill-opacity:1;fill-rule:nonzero;stroke:none"
         transform="matrix(0.13333333,0,0,-0.13333333,0,658.32)" />
       
    </g>
  </g>
</svg>
